<svg width="99" height="82" viewBox="0 0 99 82" fill="none" xmlns="http://www.w3.org/2000/svg">
<g clip-path="url(#clip0_677_11011)">
<path d="M43.8574 15.5826C43.8383 15.5826 43.8192 15.5819 43.8 15.5807C42.5359 15.4994 38.2104 14.8876 35.6271 10.4209C35.4362 10.0913 35.4739 9.67174 35.7209 9.37733C37.8783 7.62281 39.5635 5.72393 40.5582 3.61399C40.7378 3.39993 41.0074 3.28292 41.2802 3.28774C41.5603 3.29437 41.8184 3.42626 41.9884 3.64961C43.2149 5.26122 45.6363 8.11416 48.0726 9.11441C48.3465 9.22694 48.5447 9.45528 48.6165 9.74126C48.6878 10.0248 48.6219 10.3172 48.4356 10.5433L44.5605 15.2487C44.3862 15.4604 44.1268 15.5826 43.8574 15.5826Z" fill="#E6E6E6"/>
<path d="M36.5206 9.66088C36.4546 9.73969 36.4425 9.85205 36.4906 9.94084C38.8276 14.2442 43.0058 14.5818 43.8196 14.6057C43.8979 14.6102 43.9714 14.5749 44.0212 14.5145L47.8685 9.84293C47.9229 9.77668 47.9397 9.6922 47.9147 9.61064C47.8894 9.52873 47.8273 9.46765 47.7442 9.44356C45.1312 8.67991 42.3896 5.14281 41.6116 4.07683C41.566 4.01454 41.4958 3.9772 41.4188 3.97462C41.3398 3.97385 41.2678 4.00491 41.2174 4.06479C40.1042 6.23536 38.5455 8.1054 36.5206 9.66088Z" fill="white"/>
<path d="M38.4581 10.6688L41.9455 7.11298C42.1839 6.86991 41.8104 6.49583 41.5717 6.7392L38.0843 10.295C37.8459 10.5381 38.2194 10.9122 38.4581 10.6688Z" fill="#E6E6E6"/>
<path d="M40.5628 11.6703C41.5253 10.8076 42.3617 9.80878 43.0466 8.71273C43.2274 8.42342 42.7702 8.15777 42.5901 8.44594C41.928 9.50558 41.1194 10.4626 40.189 11.2965C39.9352 11.5241 40.31 11.8969 40.5628 11.6703Z" fill="#E6E6E6"/>
<path d="M42.4601 12.8702C43.3364 11.8994 44.0823 10.8161 44.6696 9.64742C44.8219 9.34425 44.3661 9.07629 44.2131 9.38062C43.6457 10.5097 42.9331 11.5583 42.0863 12.4964C41.8588 12.7483 42.2315 13.1233 42.4601 12.8702Z" fill="#E6E6E6"/>
<path d="M47.029 16.9922C47.0099 16.9922 46.9908 16.9915 46.9716 16.9903C45.7075 16.9091 41.382 16.2972 38.7987 11.8306C38.6079 11.5009 38.6455 11.0814 38.8926 10.787C40.9421 9.00934 42.4852 7.06546 43.7298 5.02365C43.9095 4.8096 44.179 4.69259 44.4518 4.69741C44.732 4.70403 44.9901 4.83593 45.1601 5.05927C46.3865 6.67089 48.8079 9.52383 51.2442 10.5241C51.5181 10.6366 51.7163 10.8649 51.7882 11.1509C51.8595 11.4345 51.7935 11.7269 51.6072 11.953L47.7321 16.6584C47.5579 16.8701 47.2984 16.9922 47.029 16.9922Z" fill="#E6E6E6"/>
<path d="M39.6922 11.0705C39.6262 11.1494 39.6142 11.2617 39.6623 11.3505C41.9992 15.6538 46.1774 15.9914 46.9912 16.0154C47.0696 16.0198 47.1431 15.9846 47.1928 15.9242L51.0401 11.2526C51.0946 11.1864 51.1114 11.1019 51.0863 11.0203C51.061 10.9384 50.9989 10.8773 50.9158 10.8532C48.3028 10.0896 45.5612 6.55248 44.7832 5.4865C44.7377 5.42421 44.6674 5.38687 44.5905 5.38429C44.5114 5.38352 44.4394 5.41458 44.3891 5.47446C43.0555 7.6904 41.5553 9.65471 39.6922 11.0705Z" fill="white"/>
<path d="M41.6297 12.0785L45.1172 8.52265C45.3555 8.27958 44.9821 7.9055 44.7434 8.14887L41.2559 11.7047C41.0175 11.9478 41.391 12.3219 41.6297 12.0785Z" fill="#E6E6E6"/>
<path d="M43.7345 13.08C44.6969 12.2173 45.5333 11.2184 46.2182 10.1224C46.399 9.83308 45.9418 9.56744 45.7618 9.85561C45.0996 10.9152 44.2911 11.8723 43.3607 12.7062C43.1068 12.9337 43.4817 13.3066 43.7345 13.08Z" fill="#E6E6E6"/>
<path d="M45.6317 14.2798C46.508 13.3091 47.2539 12.2257 47.8412 11.0571C47.9936 10.7539 47.5377 10.486 47.3848 10.7903C46.8174 11.9194 46.1048 12.968 45.2579 13.9061C45.0305 14.158 45.4031 14.533 45.6317 14.2798Z" fill="#E6E6E6"/>
<path d="M81.7404 49.7657C81.7213 49.7657 81.7022 49.765 81.6831 49.7638C80.4189 49.6825 76.0934 49.0707 73.5101 44.604C73.3193 44.2744 73.357 43.8549 73.604 43.5604L78.4412 37.7971C78.6209 37.583 78.8904 37.466 79.1633 37.4708C79.4434 37.4775 79.8029 37.5605 79.8715 37.8327C80.4287 40.0445 82.8288 42.9165 85.9557 43.2975C86.2496 43.3333 86.4277 43.6384 86.4996 43.9244C86.5709 44.2079 86.5049 44.5003 86.3186 44.7264L82.4435 49.4318C82.2693 49.6435 82.0098 49.7657 81.7404 49.7657Z" fill="#E6E6E6"/>
<path d="M74.4036 43.844C74.3376 43.9228 74.3256 44.0352 74.3737 44.1239C76.7107 48.4273 80.8888 48.7649 81.7026 48.7888C81.781 48.7933 81.8545 48.758 81.9042 48.6976L85.7515 44.026C85.806 43.9598 85.8228 43.8753 85.7977 43.7937C85.7724 43.7118 85.7137 43.6307 85.6272 43.6267C82.3012 43.4706 79.6297 39.8738 79.4946 38.2599C79.4882 38.1831 79.3788 38.1603 79.3019 38.1577C79.2228 38.157 79.1508 38.188 79.1005 38.2479L74.4036 43.844Z" fill="white"/>
<path d="M76.3411 44.8519L79.8286 41.2961C80.067 41.053 79.6935 40.6789 79.4548 40.9223L75.9674 44.4781C75.729 44.7212 76.1024 45.0953 76.3411 44.8519Z" fill="#E6E6E6"/>
<path d="M78.4459 45.8534C79.4084 44.9907 80.2448 43.9919 80.9296 42.8958C81.1104 42.6065 80.6533 42.3409 80.4732 42.629C79.8111 43.6887 79.0025 44.6457 78.0721 45.4797C77.8182 45.7072 78.1931 46.08 78.4459 45.8534Z" fill="#E6E6E6"/>
<path d="M80.3431 47.0533C81.2194 46.0825 81.9654 44.9992 82.5526 43.8305C82.705 43.5274 82.2491 43.2594 82.0962 43.5637C81.5288 44.6928 80.8162 45.7414 79.9693 46.6795C79.7419 46.9314 80.1146 47.3064 80.3431 47.0533Z" fill="#E6E6E6"/>
<path d="M67.2491 80.4864L65.1596 80.4862L64.1655 72.4263L67.2496 72.4265L67.2491 80.4864Z" fill="#FFB6B6"/>
<path d="M60.0899 80.4391C60.0248 80.5487 59.9905 80.9024 59.9905 81.0298C59.9905 81.4215 60.308 81.739 60.6997 81.739H67.1709C67.4381 81.739 67.6547 81.5224 67.6547 81.2552V80.9857C67.6547 80.9857 67.9748 80.176 67.3158 79.178C67.3158 79.178 66.4966 79.9595 65.2726 78.7354L64.9117 78.0815L62.2989 79.9924L60.8506 80.1707C60.5338 80.2097 60.2529 80.1646 60.0899 80.4391Z" fill="#2F2E41"/>
<path d="M86.5448 76.3627L84.7649 77.4574L79.6951 71.1133L82.322 69.4976L86.5448 76.3627Z" fill="#FFB6B6"/>
<path d="M80.4222 80.0737C80.4242 80.2012 80.5802 80.5204 80.647 80.6289C80.8522 80.9625 81.2891 81.0666 81.6227 80.8614L87.1344 77.4706C87.362 77.3306 87.433 77.0326 87.293 76.805L87.1518 76.5755C87.1518 76.5755 87.0002 75.7181 85.9159 75.2134C85.9159 75.2134 85.6277 76.3082 83.9438 75.907L83.2937 75.5392L82.0696 78.5358L80.9295 79.4465C80.68 79.6457 80.4172 79.7546 80.4222 80.0737Z" fill="#2F2E41"/>
<path d="M73.4112 42.7887C73.3077 42.3375 73.3156 41.8995 73.4126 41.5366L72.1536 37.3029L74.2035 36.7471L75.26 41.1016C75.5049 41.384 75.7025 41.7736 75.806 42.2248C76.0423 43.2555 75.6977 44.2173 75.0364 44.373C74.3751 44.5287 73.6475 43.8194 73.4112 42.7887Z" fill="#FFB6B6"/>
<path d="M61.7473 14.5681C61.7473 14.5681 65.051 13.1302 66.8956 15.2081C68.5746 17.0995 71.983 22.7908 71.633 23.3446L74.9886 39.1999L72.5013 39.9661L65.9035 21.7289L61.7473 14.5681Z" fill="#EDA268"/>
<path d="M58.1091 38.0651L59.8113 57.9235L63.9248 76.3634L68.322 75.9379L66.1943 55.7958L67.4966 37.8955L58.1091 38.0651Z" fill="#2F2E41"/>
<path d="M58.4609 42.3739L69.0628 59.2515L81.1595 73.7643L84.8744 71.3735L73.7644 54.4384C72.064 46.9787 70.1809 40.0733 66.73 37.9268L58.4609 42.3739Z" fill="#2F2E41"/>
<path d="M59.0797 42.4568C58.5824 42.4568 58.1008 42.2816 57.7083 41.9488C57.1814 41.502 56.907 40.8506 56.9551 40.1616L57.88 31.2884L57.5268 21.599L57.529 21.5885L58.627 16.3232C58.6378 16.1558 58.6729 15.9787 58.7295 15.8086L60.3513 10.9326C60.643 10.0556 61.4598 9.46631 62.3841 9.46631H63.8182C64.5362 9.46631 65.2027 9.82293 65.6008 10.4204L66.8563 12.3035C66.9397 12.4286 67.0101 12.5629 67.0655 12.7027L69.8371 19.6976C69.925 19.9197 69.9751 20.1533 69.9857 20.3919L70.8456 39.8048C70.8743 40.4493 70.615 41.0661 70.1344 41.497C69.6567 41.9254 69.0194 42.1149 68.3874 42.0173C64.7682 41.4584 61.6007 41.9155 59.5806 42.3974C59.4137 42.4372 59.2457 42.4568 59.0797 42.4568Z" fill="#EDA268"/>
<path d="M58.6765 23.1714L56.2651 21.3274C56.2651 21.3274 57.3999 11.2563 60.3787 11.2563C63.3574 11.2563 64.9177 9.5542 64.9177 9.5542C64.9177 9.5542 75.5561 24.448 72.5774 26.1501C69.5986 27.8523 65.4851 27.0012 65.4851 27.0012L64.0363 14.278C63.8582 13.6054 62.9326 13.5326 62.6516 14.169L58.6765 23.1714Z" fill="#3F3D56"/>
<path d="M62.6434 9.03239C64.9205 9.03239 66.7665 7.1864 66.7665 4.90926C66.7665 2.63212 64.9205 0.786133 62.6434 0.786133C60.3662 0.786133 58.5203 2.63212 58.5203 4.90926C58.5203 7.1864 60.3662 9.03239 62.6434 9.03239Z" fill="#FFB6B6"/>
<path d="M65.9085 8.02596C65.5365 8.16483 64.9663 8.38075 64.5944 8.51962C64.2475 7.82815 64.6725 7.46934 64.7166 6.697C64.7313 6.43926 64.7685 6.18123 64.7472 5.92395C64.7258 5.66667 64.6374 5.40258 64.4433 5.23234C64.1464 4.97193 63.652 5.01427 63.3646 5.28511C63.0772 5.55595 62.9953 6.00348 63.1127 6.38053C61.9822 5.89183 61.2518 4.60973 61.408 3.38805C61.0704 3.2557 60.7243 3.12156 60.3618 3.11144C59.9993 3.10131 59.6109 3.23964 59.4177 3.54655C59.2823 3.76175 59.2552 4.03493 59.1032 4.23878C58.8562 4.57 58.3225 4.59567 57.9944 4.34442C57.6664 4.09317 57.5409 3.63658 57.6109 3.22937C57.6809 2.82216 57.1719 1.99116 57.4568 1.69195C57.6512 1.48784 58.6159 1.77705 58.8328 1.59699C59.0306 1.43272 59.2292 1.26791 59.4473 1.13163C59.7241 0.958639 60.0306 0.833365 60.3493 0.762973C60.6508 0.696389 60.9607 0.678899 61.269 0.661623C61.5819 0.644082 62.0149 0.0209024 62.3279 0.00336166C63.2493 -0.0482792 64.0728 0.508136 64.9569 0.773041C65.8409 1.03795 66.3971 1.79865 66.8865 2.58115C67.5835 3.69574 67.3466 4.91701 66.8666 5.98278C66.748 6.24622 67.1461 6.52306 67.0871 6.80589C67.0323 7.06881 66.786 7.25923 66.7284 7.52154C66.6792 7.74585 66.3881 7.48598 66.3187 7.70487C66.2587 7.89376 66.0821 8.02712 65.8933 8.08741C65.7046 8.1477 65.5024 8.14648 65.3043 8.14468" fill="#2F2E41"/>
<path d="M65.0234 9.44824L65.1687 9.55405L65.5351 9.82077C66.6366 10.6227 66.5341 12.2967 65.3431 12.9583L63.8538 10.5794" fill="#3F3D56"/>
<path d="M88.986 78.9459C89.35 78.9687 89.5512 78.5165 89.2758 78.2529L89.2484 78.144C89.252 78.1352 89.2556 78.1265 89.2592 78.1178C89.6274 77.24 90.875 77.2461 91.24 78.1252C91.5639 78.9054 91.9764 79.687 92.078 80.512C92.1235 80.8761 92.103 81.2471 92.0222 81.6045C92.7813 79.9464 93.1807 78.1357 93.1807 76.3148C93.1807 75.8573 93.1557 75.3998 93.1045 74.9435C93.0624 74.5702 93.0043 74.1992 92.9292 73.8316C92.5229 71.8445 91.6432 69.9519 90.3743 68.3712C89.7643 68.0377 89.2556 67.5165 88.9483 66.8917C88.8379 66.6664 88.7514 66.424 88.7104 66.177C88.7799 66.1861 88.9722 65.1289 88.9198 65.064C89.0166 64.9172 89.1897 64.8442 89.2954 64.701C89.8209 63.9885 90.5449 64.1129 90.9228 65.0811C91.7302 65.4886 91.738 66.1644 91.2426 66.8143C90.9274 67.2278 90.8841 67.7874 90.6076 68.2301C90.6361 68.2665 90.6656 68.3018 90.6941 68.3382C91.2158 69.0074 91.6671 69.7266 92.0475 70.4823C91.94 69.6425 92.0987 68.6307 92.3693 67.9786C92.6773 67.2355 93.2547 66.6096 93.7631 65.9672C94.3739 65.1956 95.6262 65.5324 95.7338 66.5105C95.7348 66.52 95.7358 66.5294 95.7368 66.5389C95.6613 66.5815 95.5873 66.6268 95.515 66.6746C95.1028 66.9472 95.2453 67.5862 95.7337 67.6616L95.7448 67.6633C95.7175 67.9353 95.6708 68.205 95.6025 68.4702C96.2548 70.9926 94.8466 71.9114 92.8359 71.9526C92.7915 71.9754 92.7483 71.9982 92.7039 72.0198C92.9076 72.5934 93.0704 73.1817 93.191 73.7781C93.2991 74.305 93.3742 74.8376 93.4163 75.3725C93.4687 76.0474 93.4641 76.7257 93.4072 77.3994L93.4106 77.3755C93.5552 76.6335 93.958 75.9404 94.543 75.4601C95.4144 74.7443 96.6456 74.4807 97.5857 73.9053C98.0382 73.6283 98.6181 73.9863 98.5391 74.5109L98.5353 74.536C98.3953 74.5929 98.2587 74.659 98.1267 74.7329C98.0512 74.7755 97.9772 74.8208 97.905 74.8686C97.4927 75.1412 97.6352 75.7802 98.1236 75.8556L98.1347 75.8573C98.1427 75.8585 98.1495 75.8596 98.1575 75.8607C97.9173 76.4309 97.5827 76.9601 97.1639 77.4165C96.7561 79.6185 95.0044 79.8274 93.1307 79.1861H93.1295C92.9247 80.0784 92.6254 80.9501 92.2407 81.7809H89.0655C89.0541 81.7456 89.0439 81.7092 89.0337 81.6739C89.3273 81.6921 89.6232 81.6751 89.9122 81.6216C89.6767 81.3325 89.4411 81.0412 89.2055 80.7521C89.1998 80.7464 89.1953 80.7407 89.1907 80.735C89.0712 80.5871 88.9506 80.4403 88.8311 80.2923L88.831 80.2922C88.8235 79.838 88.8781 79.3852 88.986 78.9459Z" fill="#F2F2F2"/>
<path d="M34.0906 81.7902C34.0906 81.9065 34.184 81.9999 34.3003 81.9999H98.3122C98.4285 81.9999 98.5219 81.9065 98.5219 81.7902C98.5219 81.674 98.4285 81.5806 98.3122 81.5806H34.3003C34.184 81.5806 34.0906 81.674 34.0906 81.7902Z" fill="#CCCCCC"/>
<path d="M44.2295 14.3551C44.6014 14.6005 44.887 14.9095 45.0607 15.2247L48.7505 17.3385L47.6933 19.0648L44.0642 16.7348C43.706 16.699 43.3096 16.558 42.9377 16.3126C42.0883 15.752 41.6889 14.8594 42.0456 14.3189C42.4023 13.7783 43.3801 13.7945 44.2295 14.3551Z" fill="#FFB6B6"/>
<path d="M61.5899 12.127C63.9429 10.684 66.3074 13.9886 64.2153 15.7892L64.2082 15.7953L55.8487 23.6576L45.8445 18.7174L46.8337 16.05L54.5845 19.1203L60.3988 13.0844C60.8035 12.6792 61.2017 12.3651 61.5899 12.127Z" fill="#EDA268"/>
<path d="M12.0336 25.2549C11.8392 25.2549 11.6812 25.4129 11.6812 25.6073V31.0695C11.6812 31.2639 11.8392 31.4219 12.0336 31.4219C12.2279 31.4219 12.386 31.2639 12.386 31.0695V25.6073C12.386 25.4129 12.2279 25.2549 12.0336 25.2549Z" fill="#3F3D56"/>
<path d="M15.4873 30.5183C16.7001 30.5183 17.6833 29.5558 17.6833 28.3685C17.6833 27.1812 16.7001 26.2188 15.4873 26.2188C14.2745 26.2188 13.2913 27.1812 13.2913 28.3685C13.2913 29.5558 14.2745 30.5183 15.4873 30.5183Z" fill="#EDA268"/>
<path d="M33.092 27.633H21.2716C20.8661 27.633 20.5361 27.3031 20.5361 26.8976C20.5361 26.492 20.8661 26.1621 21.2716 26.1621H33.092C33.4975 26.1621 33.8274 26.492 33.8274 26.8976C33.8274 27.3031 33.4975 27.633 33.092 27.633Z" fill="#F2F2F2"/>
<path d="M42.3167 30.1223H21.2716C20.8661 30.1223 20.5361 29.7923 20.5361 29.3868C20.5361 28.9813 20.8661 28.6514 21.2716 28.6514H42.3167C42.7222 28.6514 43.0521 28.9813 43.0521 29.3868C43.0521 29.7923 42.7222 30.1223 42.3167 30.1223Z" fill="#F2F2F2"/>
<path d="M2.19604 42.1443C3.40888 42.1443 4.39208 41.1818 4.39208 39.9945C4.39208 38.8072 3.40888 37.8447 2.19604 37.8447C0.9832 37.8447 0 38.8072 0 39.9945C0 41.1818 0.9832 42.1443 2.19604 42.1443Z" fill="#EDA268"/>
<path d="M19.8007 39.259H7.98032C7.57481 39.259 7.24487 38.929 7.24487 38.5235C7.24487 38.118 7.57481 37.7881 7.98032 37.7881H19.8007C20.2062 37.7881 20.5362 38.118 20.5362 38.5235C20.5362 38.929 20.2062 39.259 19.8007 39.259Z" fill="#F2F2F2"/>
<path d="M22.8218 49.1941C24.0346 49.1941 25.0178 48.2316 25.0178 47.0443C25.0178 45.857 24.0346 44.8945 22.8218 44.8945C21.6089 44.8945 20.6257 45.857 20.6257 47.0443C20.6257 48.2316 21.6089 49.1941 22.8218 49.1941Z" fill="#EDA268"/>
<path d="M49.6512 48.798H28.6061C28.2005 48.798 27.8706 48.4681 27.8706 48.0626C27.8706 47.6571 28.2005 47.3271 28.6061 47.3271H49.6512C50.0567 47.3271 50.3866 47.6571 50.3866 48.0626C50.3866 48.4681 50.0567 48.798 49.6512 48.798Z" fill="#F2F2F2"/>
<path d="M44.4519 8.9968C45.6647 8.9968 46.6479 8.03432 46.6479 6.84703C46.6479 5.65975 45.6647 4.69727 44.4519 4.69727C43.2391 4.69727 42.2559 5.65975 42.2559 6.84703C42.2559 8.03432 43.2391 8.9968 44.4519 8.9968Z" fill="#EDA268"/>
<path d="M84.8743 45.0368C86.0871 45.0368 87.0703 44.0744 87.0703 42.8871C87.0703 41.6998 86.0871 40.7373 84.8743 40.7373C83.6614 40.7373 82.6782 41.6998 82.6782 42.8871C82.6782 44.0744 83.6614 45.0368 84.8743 45.0368Z" fill="#EDA268"/>
</g>
<defs>
<clipPath id="clip0_677_11011">
<rect width="98.5465" height="82" fill="white"/>
</clipPath>
</defs>
</svg>
