<svg width="112" height="82" viewBox="0 0 112 82" fill="none" xmlns="http://www.w3.org/2000/svg">
<g clip-path="url(#clip0_677_11127)">
<path d="M111.559 18.4027V44.7491C111.559 46.6437 110.023 48.1796 108.128 48.1796H81.7821C79.8874 48.1796 78.3516 46.6437 78.3516 44.7491V18.4027C78.3516 16.5081 79.8874 14.9722 81.7821 14.9722H108.128C110.023 14.9722 111.559 16.5081 111.559 18.4027ZM108.128 47.8336C109.832 47.8336 111.213 46.4526 111.213 44.7491V31.8741C111.213 22.7305 103.801 15.3181 94.657 15.3181H81.7821C80.0785 15.3181 78.6975 16.6991 78.6975 18.4027V44.7491C78.6975 46.4526 80.0785 47.8336 81.7821 47.8336L108.128 47.8336Z" fill="#E6E6E6"/>
<path d="M111.178 31.5758C111.178 22.6162 103.915 15.353 94.9552 15.353C85.9956 15.353 78.7324 22.6162 78.7324 31.5758C78.7324 40.5354 88.5558 51.9144 94.9552 46.4149C101.355 40.9154 111.178 40.5354 111.178 31.5758Z" fill="#F2F2F2"/>
<path d="M96.1659 13.2425V31.5757C96.1659 33.197 94.8469 34.516 93.2256 34.516H74.8924C73.2711 34.516 71.9521 33.197 71.9521 31.5757V13.2425C71.9521 11.6212 73.2711 10.3022 74.8924 10.3022H93.2256C94.8469 10.3022 96.1659 11.6212 96.1659 13.2425ZM93.2256 34.1701C94.6584 34.1701 95.82 33.0085 95.82 31.5757V22.3328C95.82 15.8796 90.5885 10.6482 84.1353 10.6482H74.8924C73.4596 10.6482 72.2981 11.8097 72.2981 13.2425V31.5757C72.2981 33.0085 73.4596 34.1701 74.8924 34.1701H93.2256Z" fill="#CCCCCC"/>
<path d="M95.842 22.4093C95.842 15.9018 90.5667 10.6265 84.0592 10.6265C77.5517 10.6265 72.2764 15.9018 72.2764 22.4093C72.2764 28.9168 81.0363 38.2253 84.0592 32.4626C87.5183 25.8684 95.842 28.9168 95.842 22.4093Z" fill="#E6E6E6"/>
<path d="M83.3673 10.4754V19.815C83.3673 21.4363 82.0483 22.7552 80.427 22.7552H71.0875C69.4662 22.7552 68.1472 21.4363 68.1472 19.815V10.4754C68.1472 8.85411 69.4662 7.53516 71.0875 7.53516H80.427C82.0483 7.53516 83.3673 8.85411 83.3673 10.4754ZM80.427 22.4093C81.8598 22.4093 83.0214 21.2478 83.0214 19.815V15.4652C83.0214 11.2766 79.6258 7.88107 75.4372 7.88107H71.0875C69.6546 7.88107 68.4931 9.04259 68.4931 10.4754V19.815C68.4931 21.2478 69.6546 22.4093 71.0875 22.4093H80.427Z" fill="#3F3D56"/>
<path d="M83.1002 15.1452C83.1002 11.0898 79.8126 7.80225 75.7572 7.80225C71.7019 7.80225 68.4143 11.0898 68.4143 15.1452C68.4143 19.2006 74.0721 24.7931 75.7572 21.1045C78.0057 16.1829 83.1002 19.2006 83.1002 15.1452Z" fill="#EDA268"/>
<path d="M32.3481 1.99756H32.0022V60.8077H32.3481V1.99756Z" fill="#3F3D56"/>
<path d="M32.1753 16.1802C33.3216 16.1802 34.2508 15.251 34.2508 14.1048C34.2508 12.9585 33.3216 12.0293 32.1753 12.0293C31.0291 12.0293 30.0999 12.9585 30.0999 14.1048C30.0999 15.251 31.0291 16.1802 32.1753 16.1802Z" fill="#EDA268"/>
<path d="M13.625 22.694L13.7712 28.8829L22.5428 28.6413L20.7702 21.7915L13.625 22.694Z" fill="#FFB6B6"/>
<path d="M30.7844 14.3995L29.4498 17.6248L27.501 17.1195L29.0333 13.7597C29.0005 13.6518 28.9825 13.5375 28.9825 13.4188C28.9825 12.7736 29.5056 12.2505 30.1508 12.2505C30.7961 12.2505 31.3191 12.7736 31.3191 13.4188C31.3191 13.8303 31.1059 14.1914 30.7844 14.3995Z" fill="#FFB6B6"/>
<path d="M10.0561 37.1532L9.89477 33.6665L11.8737 33.2964L11.9132 36.9889C11.9888 37.0726 12.0536 37.1685 12.104 37.2759C12.378 37.8601 12.1266 38.5558 11.5424 38.8298C10.9582 39.1038 10.2625 38.8524 9.98849 38.2682C9.81374 37.8957 9.85346 37.4782 10.0561 37.1532Z" fill="#FFB6B6"/>
<path d="M24.1458 78.1893L25.8318 78.2241L26.7717 71.5931L24.2835 71.5415L24.1458 78.1893Z" fill="#FFB6B6"/>
<path d="M29.4665 81.027C29.4575 81.4431 29.1134 81.7734 28.6972 81.7654L25.3452 81.6957L24.7932 80.4894L24.5429 81.6784L23.2781 81.653L23.7216 77.3993L24.1624 77.3828L25.9604 77.3114L26.5405 77.2896L26.5155 78.496L29.1543 80.4004C29.3549 80.5453 29.4716 80.7795 29.4665 81.027Z" fill="#2F2E41"/>
<path d="M12.7996 78.1893L14.4856 78.2241L15.4255 71.5931L12.9373 71.5415L12.7996 78.1893Z" fill="#FFB6B6"/>
<path d="M18.1203 81.027C18.1113 81.4431 17.7672 81.7734 17.351 81.7654L13.999 81.6957L13.447 80.4894L13.1967 81.6784L11.9319 81.653L12.3754 77.3993L12.8162 77.3828L14.6142 77.3114L15.1943 77.2896L15.1693 78.496L17.8081 80.4004C18.0087 80.5453 18.1255 80.7795 18.1203 81.027Z" fill="#2F2E41"/>
<path d="M11.3579 13.7974C8.48994 15.5982 9.19507 21.8614 9.33067 25.041C9.42455 27.2423 9.31276 29.4818 9.61926 31.6587C9.77432 32.7601 9.76729 33.8573 9.77517 34.9775C9.78034 35.7129 9.87534 35.5241 10.5158 35.4615C10.9019 35.4237 11.7475 35.5824 12.0663 35.3603C12.4987 35.059 12.3819 33.9966 12.4687 33.5682C12.5685 33.0755 12.7039 32.6092 12.8548 32.1283C13.2815 30.768 13.6054 29.2696 13.6249 27.8372C13.6533 25.7493 13.6669 23.6406 13.5763 21.5594C13.5287 20.463 13.4385 19.3318 13.2374 18.2546C13.1545 17.8105 12.9965 17.3986 12.7965 16.9926C12.4974 16.3856 12.3571 16.3894 11.6757 16.3101" fill="#EDA268"/>
<path d="M22.4462 27.2066L13.163 26.9487L13.6787 27.7223L12.5041 28.8827C12.5041 28.8827 8.26349 34.6848 9.55283 39.971C10.8422 45.2573 10.1163 76.5096 10.1163 76.5096L17.6757 75.6857L16.8376 44.1614L23.0264 56.0233L21.2269 75.2533L27.668 75.2344L29.731 54.4761L22.4462 27.2066Z" fill="#2F2E41"/>
<path d="M19.7652 11.754C19.1738 10.7909 19.3955 10.2674 18.1533 9.99594C17.3902 9.8292 16.4964 9.65632 15.7077 9.70733C14.8695 9.76155 14.5438 10.2813 14.0934 10.9561C13.5631 11.7506 13.2101 12.1956 12.4211 12.7478C9.08448 15.0832 11.2706 19.0605 10.3537 22.3695C10.1573 23.0782 9.86145 23.7627 9.67411 24.4728C10.3063 22.0765 10.4361 28.8206 9.32202 26.4261C9.72797 27.2986 10.8728 26.6582 11.3572 26.3019C12.2593 25.6383 13.0452 25.3769 14.1953 25.2183C15.9744 24.9731 17.2285 26.2119 18.8895 26.4992C20.6765 26.8083 22.2541 26.2271 23.131 24.5657C24.3464 22.2626 23.8991 19.9168 22.9083 17.6C22.4257 16.4715 21.9324 15.4057 21.4997 14.2541C21.0829 13.1447 20.3974 12.6041 19.6921 11.6809" fill="#EDA268"/>
<path d="M19.1802 12.412C18.4772 12.9744 18.0411 14.2512 17.8876 15.0935C17.6892 16.1823 17.7071 17.402 17.8266 18.5008C17.9454 19.5928 18.1874 20.6523 18.3031 21.7482C18.4184 22.8392 19.353 23.0417 19.6097 24.1125C19.8722 25.2074 19.4726 26.7838 20.6056 26.8374C21.7333 26.8908 22.6229 26.5372 23.6023 25.9957C25.9449 24.7007 28.5244 22.9739 29.6665 20.6312C29.9714 20.0059 31.0247 18.5415 31.3426 17.9236C31.6528 17.3209 31.404 16.2465 30.9558 15.7318C30.3283 15.011 28.4957 14.8571 27.8982 14.1263C27.5292 14.6564 27.9146 15.8506 27.7338 16.504C27.525 17.2584 24.6488 20.3322 23.7355 20.1155C23.1765 19.9829 23.3219 17.7152 23.0909 17.279C22.7657 16.6649 22.9434 14.8942 22.5751 14.3135C22.1359 13.6207 22.6855 13.4085 21.9588 12.9602C21.2634 12.5312 19.996 12.265 19.1802 12.3145" fill="#EDA268"/>
<path d="M17.873 9.05603C20.1483 9.05603 21.9928 7.21153 21.9928 4.93622C21.9928 2.66091 20.1483 0.816406 17.873 0.816406C15.5977 0.816406 13.7532 2.66091 13.7532 4.93622C13.7532 7.21153 15.5977 9.05603 17.873 9.05603Z" fill="#FFB6B6"/>
<path d="M23.4507 3.79123C23.7288 1.79402 22.9179 1.18301 21.6492 1.00202C19.1389 -0.302523 18.564 0.0254065 17.7681 0.166988L17.4757 0.10407C16.5782 -0.0890258 15.6861 -0.00664899 14.8879 0.295083C13.2043 0.9299 12.0983 2.53963 11.9759 4.33462C11.8917 5.57203 11.1464 6.61447 10.4291 7.61939C9.82916 8.45835 10.288 9.63588 11.2951 9.85257L13.9321 10.4199C14.1603 10.1314 14.3427 9.82908 14.5495 9.45023C14.6311 9.78826 14.6402 10.1753 14.5976 10.5631C15.5308 11.028 16.5497 11.2203 17.6304 11.2156C17.8042 10.984 17.9599 10.726 17.9393 10.4354C17.9993 10.7266 18.0728 11.0167 18.0854 11.3135C18.7652 10.8758 19.3271 11.0044 19.7757 11.6772C20.9089 10.738 20.9976 8.58613 19.6507 8.04708C18.5111 7.59105 20.3087 4.3986 21.5343 4.33351C21.5422 4.33309 21.8686 5.5674 21.8802 5.54419C22.0532 5.19828 21.9741 5.00867 22.1809 4.62982C22.2488 4.91479 22.2672 5.23395 22.2448 5.55884C22.5368 5.49506 22.8325 5.40174 23.1309 5.27735C23.4771 4.80726 23.6109 4.31476 23.4507 3.79123Z" fill="#2F2E41"/>
<path d="M34.8593 79.0023C35.2166 79.0247 35.4141 78.5808 35.1438 78.3221L35.1169 78.2151C35.1204 78.2066 35.124 78.198 35.1276 78.1895C35.4889 77.3278 36.7135 77.3338 37.0718 78.1967C37.3898 78.9626 37.7947 79.7297 37.8943 80.5395C37.939 80.897 37.9189 81.2612 37.8396 81.6119C38.5847 79.9843 38.9768 78.207 38.9768 76.4197C38.9768 75.9706 38.9522 75.5215 38.902 75.0736C38.8606 74.7072 38.8037 74.343 38.7299 73.9822C38.3311 72.0317 37.4676 70.174 36.2221 68.6224C35.6233 68.2951 35.124 67.7834 34.8223 67.1701C34.714 66.949 34.6291 66.711 34.5889 66.4686C34.657 66.4775 34.8458 65.4398 34.7944 65.3761C34.8894 65.232 35.0593 65.1604 35.1631 65.0197C35.6789 64.3204 36.3895 64.4425 36.7605 65.3928C37.553 65.7928 37.5607 66.4562 37.0744 67.0942C36.765 67.5001 36.7225 68.0493 36.4511 68.4838C36.479 68.5196 36.508 68.5542 36.536 68.59C37.0481 69.2468 37.491 69.9529 37.8644 70.6946C37.7589 69.8703 37.9147 68.8771 38.1803 68.237C38.4827 67.5076 39.0494 66.8933 39.5485 66.2627C40.1479 65.5053 41.3772 65.8358 41.4828 66.796C41.4838 66.8053 41.4848 66.8145 41.4858 66.8238C41.4117 66.8657 41.3391 66.9101 41.2681 66.957C40.8635 67.2246 41.0033 67.8518 41.4828 67.9259L41.4936 67.9275C41.4668 68.1945 41.421 68.4593 41.354 68.7196C41.9942 71.1955 40.612 72.0973 38.6383 72.1379C38.5948 72.1602 38.5523 72.1825 38.5087 72.2038C38.7087 72.7668 38.8685 73.3443 38.9869 73.9297C39.093 74.4469 39.1667 74.9697 39.2081 75.4947C39.2594 76.1572 39.255 76.8229 39.1991 77.4843L39.2025 77.4608C39.3443 76.7325 39.7398 76.0522 40.314 75.5807C41.1694 74.8781 42.3778 74.6193 43.3006 74.0545C43.7448 73.7827 44.314 74.134 44.2365 74.649L44.2327 74.6737C44.0953 74.7295 43.9613 74.7943 43.8317 74.8669C43.7576 74.9087 43.685 74.9532 43.614 75.0001C43.2094 75.2677 43.3492 75.8949 43.8287 75.9689L43.8395 75.9706C43.8474 75.9717 43.8541 75.9728 43.8619 75.974C43.6262 76.5336 43.2977 77.0531 42.8866 77.501C42.4863 79.6625 40.7669 79.8675 38.9277 79.2381H38.9265C38.7255 80.1139 38.4317 80.9696 38.0541 81.7851H34.9374C34.9262 81.7505 34.9162 81.7147 34.9061 81.6801C35.1943 81.698 35.4848 81.6812 35.7685 81.6287C35.5373 81.3449 35.306 81.059 35.0748 80.7752C35.0692 80.7696 35.0647 80.7641 35.0603 80.7585C34.943 80.6133 34.8246 80.4691 34.7073 80.3239L34.7072 80.3238C34.6999 79.878 34.7534 79.4336 34.8593 79.0023Z" fill="#F2F2F2"/>
<path d="M0 81.7942C0 81.9084 0.0916714 82 0.205827 82H44.0136C44.1278 82 44.2195 81.9084 44.2195 81.7942C44.2195 81.6801 44.1278 81.5884 44.0136 81.5884H0.205827C0.0916714 81.5884 0 81.6801 0 81.7942Z" fill="#CCCCCC"/>
</g>
<defs>
<clipPath id="clip0_677_11127">
<rect width="111.559" height="82" fill="white"/>
</clipPath>
</defs>
</svg>
