<svg width="117" height="82" viewBox="0 0 117 82" fill="none" xmlns="http://www.w3.org/2000/svg">
<g clip-path="url(#clip0_677_11203)">
<path d="M90.2439 81.7409L90.2463 81.6324C90.2954 79.8135 90.74 78.027 91.5493 76.3972C92.3585 74.7675 93.513 73.3335 94.9324 72.1949C95.7337 71.5626 96.6114 71.0337 97.5448 70.6207L97.6338 70.5811L97.649 70.6773C97.8297 71.8258 98.116 72.9981 98.2493 73.5184L99.1433 70.0302L99.2426 70.0015C99.6981 69.8678 100.183 69.8735 100.635 70.018C101.088 70.1625 101.486 70.4391 101.78 70.8121C102.086 71.1852 102.274 71.6416 102.318 72.1223C102.363 72.603 102.263 73.0861 102.031 73.5093C101.822 73.8976 101.617 74.3026 101.419 74.6943C100.739 76.0403 100.035 77.4322 99.0091 78.5136C98.2247 79.3245 97.2691 79.9499 96.2121 80.3442C95.155 80.7386 94.0233 80.8918 92.8994 80.7927L90.2439 81.7409Z" fill="#F2F2F2"/>
<path d="M63.0664 49.8878H39.9903C39.1603 49.8869 38.3646 49.5568 37.7778 48.9699C37.1909 48.383 36.8608 47.5874 36.8599 46.7574V14.2944C36.8641 10.5046 38.3715 6.87127 41.0513 4.19147C43.7311 1.51168 47.3644 0.00428829 51.1542 0H63.0665C63.8964 0.00093707 64.6921 0.33104 65.2789 0.91789C65.8658 1.50474 66.1959 2.30041 66.1968 3.13034V46.7574C66.1959 47.5874 65.8658 48.3831 65.2789 48.9699C64.692 49.5568 63.8963 49.8869 63.0664 49.8878Z" fill="#F2F2F2"/>
<path d="M40.797 28.2119C40.4474 28.2123 40.1123 28.3514 39.8651 28.5985C39.618 28.8457 39.4789 29.1808 39.4785 29.5304V36.9401C39.4789 37.2896 39.6179 37.6247 39.8651 37.8719C40.1123 38.1191 40.4474 38.2582 40.797 38.2586H63.2227C63.5722 38.2582 63.9073 38.1191 64.1545 37.8719C64.4017 37.6247 64.5407 37.2896 64.5411 36.9401V29.5304C64.5407 29.1808 64.4017 28.8457 64.1545 28.5985C63.9073 28.3513 63.5722 28.2123 63.2227 28.2119L40.797 28.2119Z" fill="white"/>
<path d="M63.2767 23.4048H40.851C40.4728 23.4044 40.1102 23.2539 39.8428 22.9865C39.5754 22.7191 39.425 22.3565 39.4246 21.9783C39.4272 19.6356 40.359 17.3896 42.0156 15.7331C43.6721 14.0765 45.9181 13.1447 48.2608 13.1421H63.2767C63.6549 13.1425 64.0175 13.2929 64.2849 13.5604C64.5524 13.8278 64.7028 14.1904 64.7032 14.5686V21.9783C64.7028 22.3565 64.5523 22.7191 64.2849 22.9865C64.0175 23.2539 63.6549 23.4044 63.2767 23.4048Z" fill="white"/>
<path d="M72.9318 37.122H47.1163C46.9645 37.1218 46.8191 37.0614 46.7118 36.9541C46.6045 36.8468 46.5441 36.7014 46.5439 36.5496V29.7476C46.5441 29.5959 46.6045 29.4504 46.7118 29.3431C46.8191 29.2358 46.9645 29.1755 47.1163 29.1753H72.9318C73.0836 29.1755 73.229 29.2358 73.3363 29.3431C73.4436 29.4504 73.504 29.5959 73.5041 29.7476V36.5496C73.504 36.7014 73.4436 36.8468 73.3363 36.9541C73.229 37.0614 73.0836 37.1218 72.9318 37.122Z" fill="white"/>
<path d="M72.9319 37.2301H47.1164C46.936 37.2299 46.7631 37.1582 46.6355 37.0306C46.508 36.9031 46.4362 36.7302 46.436 36.5498V29.7477C46.4362 29.5674 46.508 29.3944 46.6355 29.2669C46.7631 29.1393 46.936 29.0676 47.1164 29.0674H72.9319C73.1123 29.0676 73.2853 29.1393 73.4128 29.2669C73.5403 29.3944 73.6121 29.5674 73.6123 29.7477V36.5498C73.6121 36.7302 73.5403 36.9031 73.4128 37.0306C73.2853 37.1582 73.1123 37.2299 72.9319 37.2301ZM47.1164 29.2834C46.9933 29.2836 46.8753 29.3325 46.7882 29.4196C46.7012 29.5066 46.6522 29.6246 46.6521 29.7477V36.5498C46.6522 36.6729 46.7012 36.7909 46.7882 36.8779C46.8753 36.965 46.9933 37.0139 47.1164 37.0141H72.9319C73.055 37.0139 73.1731 36.965 73.2601 36.8779C73.3471 36.7909 73.3961 36.6729 73.3962 36.5498V29.7477C73.3961 29.6246 73.3471 29.5066 73.2601 29.4196C73.1731 29.3325 73.055 29.2836 72.9319 29.2834H47.1164Z" fill="#CCCCCC"/>
<path d="M49.3115 32.3994C49.8245 32.3994 50.2403 31.9836 50.2403 31.4707C50.2403 30.9578 49.8245 30.542 49.3115 30.542C48.7986 30.542 48.3828 30.9578 48.3828 31.4707C48.3828 31.9836 48.7986 32.3994 49.3115 32.3994Z" fill="#E6E6E6"/>
<path d="M71.3887 33.8109H48.6593C48.6229 33.811 48.5869 33.8039 48.5533 33.7901C48.5196 33.7762 48.4891 33.7558 48.4633 33.7302C48.4376 33.7045 48.4171 33.6739 48.4032 33.6404C48.3893 33.6068 48.3821 33.5707 48.3821 33.5344C48.3821 33.498 48.3893 33.462 48.4032 33.4284C48.4171 33.3948 48.4376 33.3643 48.4633 33.3386C48.4891 33.3129 48.5196 33.2925 48.5533 33.2787C48.5869 33.2648 48.6229 33.2577 48.6593 33.2578H71.3887C71.4251 33.2577 71.4611 33.2648 71.4947 33.2787C71.5284 33.2925 71.5589 33.3129 71.5847 33.3386C71.6104 33.3643 71.6308 33.3948 71.6448 33.4284C71.6587 33.462 71.6659 33.498 71.6659 33.5344C71.6659 33.5707 71.6587 33.6068 71.6448 33.6404C71.6308 33.6739 71.6104 33.7045 71.5847 33.7302C71.5589 33.7558 71.5284 33.7762 71.4947 33.7901C71.4611 33.8039 71.4251 33.811 71.3887 33.8109Z" fill="#E6E6E6"/>
<path d="M69.1303 34.9037H48.6594C48.586 34.9037 48.5157 34.8746 48.4638 34.8227C48.4119 34.7709 48.3828 34.7005 48.3828 34.6272C48.3828 34.5538 48.4119 34.4835 48.4638 34.4316C48.5157 34.3797 48.586 34.3506 48.6594 34.3506H69.1303C69.2037 34.3506 69.274 34.3797 69.3259 34.4316C69.3778 34.4835 69.4069 34.5538 69.4069 34.6272C69.4069 34.7005 69.3778 34.7709 69.3259 34.8227C69.274 34.8746 69.2037 34.9037 69.1303 34.9037Z" fill="#E6E6E6"/>
<path d="M46.1124 81.4864L39.7938 78.9679C39.6529 78.9115 39.5401 78.8016 39.4802 78.6622C39.4203 78.5228 39.4181 78.3653 39.4741 78.2243L49.0325 54.2435C49.0889 54.1026 49.1988 53.9899 49.3382 53.9299C49.4776 53.87 49.6351 53.8678 49.7761 53.9238L56.0947 56.4423C56.2356 56.4986 56.3484 56.6086 56.4083 56.748C56.4682 56.8874 56.4704 57.0448 56.4144 57.1859L46.856 81.1667C46.7996 81.3075 46.6897 81.4203 46.5503 81.4803C46.4109 81.5402 46.2534 81.5424 46.1124 81.4864Z" fill="white"/>
<path d="M46.0725 81.5868L39.7539 79.0683C39.5864 79.0013 39.4523 78.8707 39.3811 78.705C39.3098 78.5393 39.3072 78.3521 39.3738 78.1844L48.9323 54.2036C48.9992 54.0361 49.1299 53.902 49.2956 53.8308C49.4613 53.7595 49.6485 53.7569 49.8162 53.8235L56.1348 56.342C56.3022 56.409 56.4363 56.5397 56.5076 56.7054C56.5788 56.8711 56.5815 57.0583 56.5149 57.2259L46.9564 81.2068C46.8894 81.3742 46.7588 81.5083 46.593 81.5796C46.4273 81.6508 46.2401 81.6534 46.0725 81.5868ZM39.5745 78.2644C39.5291 78.3788 39.5309 78.5066 39.5795 78.6197C39.6281 78.7327 39.7196 78.8219 39.8339 78.8676L46.1525 81.3861C46.2669 81.4316 46.3947 81.4298 46.5077 81.3812C46.6208 81.3325 46.71 81.241 46.7557 81.1268L56.3142 57.1459C56.3596 57.0315 56.3578 56.9038 56.3092 56.7907C56.2606 56.6776 56.1691 56.5884 56.0548 56.5427L49.7362 54.0242C49.6218 53.9788 49.494 53.9806 49.3809 54.0292C49.2679 54.0778 49.1787 54.1693 49.133 54.2836L39.5745 78.2644Z" fill="#CCCCCC"/>
<path d="M50.3521 58.0611C50.865 58.0611 51.2808 57.6453 51.2808 57.1323C51.2808 56.6194 50.865 56.2036 50.3521 56.2036C49.8391 56.2036 49.4233 56.6194 49.4233 57.1323C49.4233 57.6453 49.8391 58.0611 50.3521 58.0611Z" fill="#E6E6E6"/>
<path d="M43.9924 78.6616C43.9243 78.6344 43.8698 78.5813 43.8409 78.5139C43.8119 78.4465 43.8109 78.3704 43.8379 78.3023L52.2537 57.1883C52.2671 57.1546 52.2871 57.1238 52.3124 57.0978C52.3378 57.0718 52.368 57.051 52.4013 57.0366C52.4347 57.0223 52.4706 57.0147 52.5069 57.0142C52.5432 57.0137 52.5793 57.0204 52.613 57.0338C52.6467 57.0473 52.6775 57.0672 52.7035 57.0926C52.7295 57.1179 52.7503 57.1481 52.7647 57.1815C52.779 57.2148 52.7866 57.2507 52.7871 57.287C52.7876 57.3233 52.7809 57.3594 52.7675 57.3931L44.3517 78.5071C44.3245 78.5752 44.2714 78.6297 44.204 78.6586C44.1367 78.6876 44.0606 78.6887 43.9924 78.6616Z" fill="#E6E6E6"/>
<path d="M45.8437 76.9685C45.7757 76.9413 45.7212 76.8881 45.6922 76.8208C45.6632 76.7534 45.6622 76.6773 45.6892 76.6092L53.2688 57.5931C53.2822 57.5593 53.3021 57.5285 53.3275 57.5024C53.3528 57.4763 53.383 57.4554 53.4164 57.4411C53.4498 57.4267 53.4857 57.419 53.5221 57.4185C53.5584 57.418 53.5945 57.4246 53.6283 57.4381C53.6621 57.4516 53.6929 57.4716 53.7189 57.4969C53.745 57.5223 53.7658 57.5526 53.7801 57.586C53.7944 57.6194 53.802 57.6553 53.8025 57.6917C53.8029 57.7281 53.7961 57.7642 53.7826 57.7979L46.2031 76.814C46.1758 76.8821 46.1227 76.9366 46.0554 76.9655C45.988 76.9945 45.9119 76.9956 45.8437 76.9685Z" fill="#E6E6E6"/>
<path d="M61.6644 6.41767C63.0146 6.41767 64.1091 5.32315 64.1091 3.97299C64.1091 2.62284 63.0146 1.52832 61.6644 1.52832C60.3142 1.52832 59.2197 2.62284 59.2197 3.97299C59.2197 5.32315 60.3142 6.41767 61.6644 6.41767Z" fill="white"/>
<path d="M62.8681 3.87646H61.7684V2.77679C61.7685 2.7631 61.7658 2.74953 61.7606 2.73686C61.7554 2.72419 61.7478 2.71268 61.7381 2.70297C61.7285 2.69327 61.717 2.68557 61.7043 2.68032C61.6917 2.67507 61.6781 2.67236 61.6644 2.67236C61.6507 2.67236 61.6372 2.67507 61.6245 2.68032C61.6119 2.68557 61.6004 2.69327 61.5907 2.70297C61.581 2.71268 61.5734 2.72419 61.5682 2.73686C61.563 2.74953 61.5603 2.7631 61.5604 2.77679V3.87646H60.4607C60.4331 3.87646 60.4067 3.88742 60.3872 3.90693C60.3677 3.92644 60.3567 3.9529 60.3567 3.98049C60.3567 4.00808 60.3677 4.03454 60.3872 4.05405C60.4067 4.07356 60.4331 4.08452 60.4607 4.08452H61.5604V5.1842C61.5603 5.1979 61.563 5.21147 61.5682 5.22414C61.5734 5.23681 61.581 5.24832 61.5907 5.25803C61.6004 5.26773 61.6119 5.27543 61.6245 5.28068C61.6372 5.28593 61.6507 5.28864 61.6644 5.28864C61.6781 5.28864 61.6917 5.28593 61.7043 5.28068C61.717 5.27543 61.7285 5.26773 61.7381 5.25803C61.7478 5.24832 61.7554 5.23681 61.7606 5.22414C61.7658 5.21147 61.7685 5.1979 61.7684 5.1842V4.08452H62.8681C62.8957 4.08452 62.9222 4.07356 62.9417 4.05405C62.9612 4.03454 62.9721 4.00808 62.9721 3.98049C62.9721 3.9529 62.9612 3.92644 62.9417 3.90693C62.9222 3.88742 62.8957 3.87646 62.8681 3.87646Z" fill="#E6E6E6"/>
<path d="M91.7897 5.98714H83.5417C83.0051 5.98714 82.4905 5.77399 82.1111 5.39459C81.7317 5.01518 81.5186 4.50059 81.5186 3.96403C81.5186 3.42747 81.7317 2.91288 82.1111 2.53347C82.4905 2.15407 83.0051 1.94092 83.5417 1.94092H91.7897C92.3263 1.94092 92.8409 2.15407 93.2203 2.53347C93.5997 2.91288 93.8128 3.42747 93.8128 3.96403C93.8128 4.50059 93.5997 5.01518 93.2203 5.39459C92.8409 5.77399 92.3263 5.98714 91.7897 5.98714Z" fill="#EDA268"/>
<path d="M63.6078 3.13114L63.6033 3.44238L79.5421 3.67263L79.5466 3.36138L63.6078 3.13114Z" fill="#3F3D56"/>
<path d="M62.9388 4.13077C62.7473 4.13121 62.5623 4.06114 62.4191 3.93391C62.276 3.80669 62.1847 3.63122 62.1627 3.44098C62.1406 3.25074 62.1894 3.05905 62.2996 2.90246C62.4099 2.74588 62.574 2.63537 62.7605 2.59202C62.947 2.54866 63.143 2.57549 63.311 2.6674C63.4791 2.7593 63.6074 2.90984 63.6715 3.0903C63.7356 3.27076 63.731 3.46851 63.6587 3.64582C63.5863 3.82313 63.4512 3.9676 63.2791 4.05167C63.1731 4.10347 63.0568 4.13052 62.9388 4.13077ZM62.9377 2.88509C62.8363 2.88509 62.7376 2.91811 62.6565 2.97916C62.5755 3.0402 62.5165 3.12597 62.4886 3.22349C62.4606 3.32101 62.4651 3.42498 62.5015 3.5197C62.5378 3.61442 62.604 3.69474 62.69 3.74851C62.7761 3.80229 62.8773 3.8266 62.9783 3.81778C63.0794 3.80896 63.1748 3.76748 63.2502 3.69962C63.3257 3.63175 63.3769 3.54118 63.3963 3.4416C63.4157 3.34202 63.4021 3.23883 63.3577 3.14763C63.3192 3.06898 63.2595 3.00262 63.1853 2.95622C63.111 2.90983 63.0253 2.88518 62.9377 2.88509Z" fill="#3F3D56"/>
<path d="M15.1877 8.63297C15.1883 8.09659 15.4017 7.58235 15.781 7.20308C16.1602 6.8238 16.6745 6.61046 17.2109 6.60986H25.4589C25.9955 6.60986 26.5101 6.82301 26.8895 7.20242C27.2689 7.58183 27.482 8.09641 27.482 8.63297C27.482 9.16954 27.2689 9.68412 26.8895 10.0635C26.5101 10.4429 25.9955 10.6561 25.4589 10.6561H17.2109C16.6745 10.6555 16.1602 10.4422 15.781 10.0629C15.4017 9.6836 15.1883 9.16935 15.1877 8.63297Z" fill="#EDA268"/>
<path d="M45.393 7.80009L29.4541 8.03027L29.4586 8.34152L45.3975 8.11134L45.393 7.80009Z" fill="#3F3D56"/>
<path d="M45.7217 8.72032C45.5513 8.63669 45.4177 8.4933 45.3462 8.31748C45.2747 8.14166 45.2705 7.94569 45.3342 7.76692C45.3979 7.58814 45.5251 7.43906 45.6917 7.34806C45.8582 7.25707 46.0524 7.23052 46.2373 7.27349C46.4222 7.31645 46.5848 7.42592 46.6941 7.58104C46.8035 7.73616 46.8519 7.92609 46.8303 8.11464C46.8086 8.30319 46.7183 8.47718 46.5767 8.60346C46.435 8.72974 46.2518 8.7995 46.062 8.79943C45.944 8.79937 45.8276 8.77231 45.7217 8.72032ZM45.9107 7.57943C45.8526 7.59925 45.7991 7.63038 45.7532 7.67102C45.7072 7.71166 45.6698 7.76101 45.6431 7.81621C45.5956 7.91352 45.5832 8.02438 45.6083 8.12975C45.6333 8.23512 45.6941 8.32856 45.7802 8.39413C45.8664 8.45969 45.9727 8.49333 46.0809 8.48931C46.1892 8.48529 46.2926 8.44385 46.3737 8.37206C46.4548 8.30028 46.5085 8.20259 46.5256 8.09565C46.5427 7.98871 46.5222 7.87915 46.4676 7.78563C46.413 7.69212 46.3276 7.62046 46.226 7.58286C46.1245 7.54525 46.013 7.54404 45.9107 7.57943Z" fill="#3F3D56"/>
<path d="M14.5652 69.7931C14.5658 69.2568 14.7791 68.7425 15.1584 68.3632C15.5377 67.984 16.0519 67.7706 16.5883 67.77H24.8364C25.3729 67.77 25.8875 67.9832 26.2669 68.3626C26.6463 68.742 26.8595 69.2566 26.8595 69.7931C26.8595 70.3297 26.6463 70.8443 26.2669 71.2237C25.8875 71.6031 25.3729 71.8162 24.8364 71.8162H16.5883C16.0519 71.8156 15.5377 71.6023 15.1584 71.223C14.7791 70.8438 14.5658 70.3295 14.5652 69.7931Z" fill="#EDA268"/>
<path d="M44.7704 68.9607L28.8315 69.1909L28.836 69.5022L44.7749 69.272L44.7704 68.9607Z" fill="#3F3D56"/>
<path d="M45.0991 69.881C44.9287 69.7973 44.7951 69.6539 44.7236 69.4781C44.6522 69.3023 44.6479 69.1063 44.7116 68.9276C44.7753 68.7488 44.9026 68.5997 45.0691 68.5087C45.2357 68.4177 45.4299 68.3912 45.6147 68.4341C45.7996 68.4771 45.9622 68.5866 46.0716 68.7417C46.1809 68.8968 46.2294 69.0867 46.2077 69.2753C46.186 69.4638 46.0958 69.6378 45.9541 69.7641C45.8124 69.8904 45.6292 69.9601 45.4395 69.9601C45.3215 69.96 45.205 69.933 45.0991 69.881ZM45.2881 68.7401C45.2301 68.7599 45.1765 68.791 45.1306 68.8317C45.0847 68.8723 45.0473 68.9217 45.0205 68.9769C44.973 69.0742 44.9607 69.185 44.9857 69.2904C45.0107 69.3958 45.0715 69.4892 45.1577 69.5548C45.2439 69.6203 45.3502 69.654 45.4584 69.65C45.5666 69.6459 45.6701 69.6045 45.7512 69.5327C45.8323 69.4609 45.8859 69.3632 45.9031 69.2563C45.9202 69.1493 45.8997 69.0398 45.845 68.9463C45.7904 68.8528 45.705 68.7811 45.6035 68.7435C45.5019 68.7059 45.3904 68.7047 45.2881 68.7401Z" fill="#3F3D56"/>
<path d="M16.7439 31.1984C16.7445 30.662 16.9578 30.1478 17.3371 29.7685C17.7164 29.3892 18.2306 29.1759 18.767 29.1753H27.0151C27.5516 29.1753 28.0662 29.3884 28.4456 29.7678C28.825 30.1473 29.0382 30.6618 29.0382 31.1984C29.0382 31.735 28.825 32.2496 28.4456 32.629C28.0662 33.0084 27.5516 33.2215 27.0151 33.2215H18.767C18.2306 33.2209 17.7164 33.0076 17.3371 32.6283C16.9578 32.249 16.7445 31.7348 16.7439 31.1984Z" fill="#EDA268"/>
<path d="M46.9494 30.3655L31.0105 30.5957L31.015 30.9069L46.9539 30.6768L46.9494 30.3655Z" fill="#3F3D56"/>
<path d="M47.2778 31.2862C47.1075 31.2026 46.9738 31.0592 46.9023 30.8834C46.8309 30.7076 46.8266 30.5116 46.8903 30.3328C46.954 30.1541 47.0813 30.005 47.2478 29.914C47.4144 29.823 47.6086 29.7964 47.7935 29.8394C47.9783 29.8824 48.1409 29.9918 48.2503 30.147C48.3596 30.3021 48.4081 30.492 48.3864 30.6806C48.3648 30.8691 48.2745 31.0431 48.1328 31.1694C47.9911 31.2957 47.808 31.3654 47.6182 31.3653C47.5002 31.3653 47.3838 31.3382 47.2778 31.2862ZM47.4668 30.1453C47.4088 30.1652 47.3552 30.1963 47.3093 30.2369C47.2634 30.2776 47.226 30.3269 47.1993 30.3821C47.1517 30.4794 47.1394 30.5903 47.1644 30.6957C47.1894 30.801 47.2502 30.8945 47.3364 30.96C47.4226 31.0256 47.5289 31.0593 47.6371 31.0552C47.7453 31.0512 47.8488 31.0098 47.9299 30.938C48.011 30.8662 48.0647 30.7685 48.0818 30.6616C48.0989 30.5546 48.0784 30.4451 48.0238 30.3516C47.9691 30.258 47.8837 30.1864 47.7822 30.1488C47.6806 30.1112 47.5692 30.11 47.4668 30.1453Z" fill="#3F3D56"/>
<path d="M89.611 18.9041H81.363C80.8264 18.9041 80.3118 18.691 79.9324 18.3116C79.553 17.9322 79.3398 17.4176 79.3398 16.881C79.3398 16.3445 79.553 15.8299 79.9324 15.4505C80.3118 15.0711 80.8264 14.8579 81.363 14.8579H89.611C90.1476 14.8579 90.6622 15.0711 91.0416 15.4505C91.421 15.8299 91.6341 16.3445 91.6341 16.881C91.6341 17.4176 91.421 17.9322 91.0416 18.3116C90.6622 18.691 90.1476 18.9041 89.611 18.9041Z" fill="#EDA268"/>
<path d="M61.4291 16.0476L61.4246 16.3589L77.3634 16.5891L77.3679 16.2779L61.4291 16.0476Z" fill="#3F3D56"/>
<path d="M60.7601 17.0478C60.5686 17.0482 60.3836 16.9781 60.2404 16.8509C60.0973 16.7237 60.006 16.5482 59.9839 16.358C59.9619 16.1677 60.0107 15.976 60.1209 15.8195C60.2312 15.6629 60.3953 15.5524 60.5818 15.509C60.7683 15.4657 60.9643 15.4925 61.1323 15.5844C61.3003 15.6763 61.4287 15.8268 61.4928 16.0073C61.5569 16.1878 61.5523 16.3855 61.48 16.5628C61.4076 16.7401 61.2725 16.8846 61.1004 16.9687C60.9944 17.0205 60.878 17.0475 60.7601 17.0478ZM60.759 15.8021C60.6575 15.8021 60.5588 15.8351 60.4778 15.8961C60.3968 15.9572 60.3378 16.043 60.3099 16.1405C60.2819 16.238 60.2864 16.342 60.3228 16.4367C60.3591 16.5314 60.4253 16.6117 60.5113 16.6655C60.5973 16.7193 60.6985 16.7436 60.7996 16.7348C60.9007 16.7259 60.9961 16.6845 61.0715 16.6166C61.1469 16.5487 61.1982 16.4582 61.2176 16.3586C61.237 16.259 61.2234 16.1558 61.179 16.0646C61.1405 15.986 61.0808 15.9196 61.0066 15.8732C60.9323 15.8268 60.8465 15.8022 60.759 15.8021Z" fill="#3F3D56"/>
<path d="M94.022 41.9482L91.6264 42.0545C91.0865 43.5225 91.469 47.0866 91.469 47.0866L90.2104 52.9433C90.0786 53.0745 89.9837 53.2381 89.9352 53.4177C89.8868 53.5973 89.8865 53.7864 89.9344 53.9661C89.9823 54.1458 90.0766 54.3098 90.208 54.4414C90.3394 54.5731 90.5031 54.6678 90.6828 54.716C90.8624 54.7643 91.0516 54.7643 91.2312 54.7162C91.4109 54.6681 91.5747 54.5735 91.7062 54.442C91.8376 54.3105 91.9322 54.1466 91.9802 53.9669C92.0282 53.7872 92.0281 53.5981 91.9797 53.4185L94.5357 46.3956L94.022 41.9482Z" fill="#9E616A"/>
<path d="M92.4285 35.5424C92.8001 35.5301 93.1698 35.6 93.5114 35.7468C93.8529 35.8937 94.1579 36.1141 94.4046 36.3922C94.6513 36.6704 94.8337 36.9995 94.9387 37.3561C95.0438 37.7128 95.069 38.0882 95.0124 38.4557L94.7823 39.9521C94.7823 39.9521 95.4405 45.0464 94.638 46.4328L93.1074 50.5774L90.6103 50.4497L91.3007 45.9237C91.3007 45.9237 91.4749 43.6836 90.8376 42.7359C90.4473 42.1555 90.0506 39.9715 89.9828 38.1467C89.972 37.815 90.0268 37.4845 90.1439 37.174C90.2611 36.8635 90.4383 36.5791 90.6655 36.3372C90.8926 36.0953 91.1653 35.9006 91.4678 35.7642C91.7703 35.6278 92.0968 35.5524 92.4285 35.5424Z" fill="#3F3D56"/>
<path d="M90.6972 80.0829L89.1418 80.0828L88.4016 74.0825H90.6977L90.6972 80.0829Z" fill="#9E616A"/>
<path d="M90.7522 81.7056L85.9685 81.7054V81.6449C85.9685 81.1511 86.1647 80.6776 86.5139 80.3284C86.8631 79.9792 87.3366 79.7831 87.8305 79.783L88.7044 79.1201L90.3347 79.7831L90.7523 79.7831L90.7522 81.7056Z" fill="#2F2E41"/>
<path d="M85.0766 80.0829L83.5212 80.0828L82.781 74.0825H85.0771L85.0766 80.0829Z" fill="#9E616A"/>
<path d="M85.1316 81.7056L80.3479 81.7054V81.6449C80.3479 81.1511 80.5441 80.6776 80.8933 80.3284C81.2425 79.9792 81.716 79.7831 82.2098 79.783L83.0838 79.1201L84.7141 79.7831L85.1317 79.7831L85.1316 81.7056Z" fill="#2F2E41"/>
<path d="M79.4282 63.7315C80.3521 66.6745 80.7068 68.9835 81.4108 71.8976C81.6889 72.4092 82.8858 76.6604 82.8858 76.6604C82.8858 76.6604 84.6795 76.8572 85.314 76.3551C85.9485 75.8531 85.2947 73.3686 85.2947 73.3686C85.713 71.4901 84.682 68.5305 84.621 66.7095C84.7479 65.9452 84.0752 65.2891 84.0136 64.5602C84.4583 64.2218 86.6216 58.9115 87.0627 57.4277C86.836 61.9491 88.825 72.2726 87.7771 75.7022C87.1682 77.6947 88.5835 77.2518 90.6792 77.3482C91.6137 77.0706 91.2335 75.4711 91.2335 75.4711C91.2335 75.4711 91.868 74.4146 91.868 74.0049C92.3223 72.088 92.8682 67.918 92.7192 66.981C92.7875 65.9863 92.8212 56.0489 93.581 52.5682C94.0873 49.7955 87.8823 49.1852 86.0978 48.524C83.1201 47.0894 83.6226 49.129 82.0545 51.0078C80.5424 54.2466 79.6518 60.03 79.4282 63.7315Z" fill="#2F2E41"/>
<path d="M86.3793 34.5838L88.1882 32.5469L91.0466 32.8645L92.8767 35.4256C94.8992 35.8911 95.2722 37.5447 94.9171 39.5896C94.2069 43.6788 92.4538 46.5372 93.2507 48.5549C94.4604 51.6176 93.8739 53.9745 90.9782 53.5451C88.0826 53.1157 81.41 50.2801 83.2908 48.3993C85.1716 46.5184 83.49 45.5325 83.49 45.5325L84.8105 38.3421C84.4723 36.5083 84.5245 34.7757 86.3793 34.5838Z" fill="#3F3D56"/>
<path d="M86.6116 41.0386L84.3318 40.2949C83.3098 41.4791 82.4135 44.9497 82.4135 44.9497L79.1743 49.9888C79.0048 50.0653 78.8584 50.185 78.7498 50.336C78.6413 50.4871 78.5744 50.664 78.556 50.8491C78.5376 51.0342 78.5682 51.2208 78.6449 51.3903C78.7215 51.5597 78.8414 51.706 78.9926 51.8144C79.1438 51.9227 79.3208 51.9894 79.5059 52.0076C79.691 52.0258 79.8776 51.9949 80.047 51.9181C80.2163 51.8412 80.3625 51.7211 80.4706 51.5698C80.5788 51.4185 80.6453 51.2414 80.6632 51.0563L85.5272 45.3822L86.6116 41.0386Z" fill="#9E616A"/>
<path d="M87.3743 34.4818C87.7264 34.6011 88.0479 34.7966 88.3159 35.0543C88.5839 35.3119 88.7918 35.6255 88.9249 35.9727C89.0579 36.3199 89.1128 36.6921 89.0856 37.0629C89.0584 37.4337 88.9499 37.794 88.7677 38.1181L88.0256 39.4378C88.0256 39.4378 86.8489 44.4378 85.6098 45.4531L82.7185 48.7939L80.426 47.7956L82.6651 43.8021C82.6651 43.8021 83.6165 41.7665 83.3536 40.6552C83.1925 39.9747 83.5898 37.7907 84.1685 36.0588C84.2751 35.7445 84.4427 35.4544 84.6616 35.205C84.8806 34.9556 85.1465 34.7518 85.4443 34.6053C85.7421 34.4589 86.0658 34.3725 86.397 34.3513C86.7282 34.3301 87.0603 34.3745 87.3743 34.4818Z" fill="#3F3D56"/>
<path d="M90.3114 32.1126C91.9433 32.1126 93.2662 30.7897 93.2662 29.1579C93.2662 27.526 91.9433 26.2031 90.3114 26.2031C88.6796 26.2031 87.3567 27.526 87.3567 29.1579C87.3567 30.7897 88.6796 32.1126 90.3114 32.1126Z" fill="#A0616A"/>
<path d="M87.739 26.4988C87.7832 26.2534 87.882 26.021 88.0282 25.8189C88.1018 25.7314 88.1931 25.6604 88.2961 25.6106C88.399 25.5607 88.5113 25.5332 88.6257 25.5297C88.74 25.5262 88.8538 25.5469 88.9596 25.5904C89.0654 25.6339 89.1608 25.6992 89.2396 25.7821C89.1934 25.6478 89.18 25.5044 89.2004 25.3639C89.4162 25.4674 89.647 25.536 89.8843 25.5673L89.36 25.0198C90.4372 24.5412 91.3272 24.567 91.97 25.2596C92.154 25.4579 92.5306 25.3194 92.7284 25.5241C92.9262 25.7287 92.9372 26.1655 92.6872 26.2796C93.1799 26.0941 93.7456 26.3633 94.0706 26.8145C94.3956 27.2657 94.5153 27.8609 94.5373 28.4382C94.5658 29.1869 94.4262 29.984 93.9692 30.5351C93.6704 30.8956 93.263 31.1203 92.9322 31.4446L92.9223 31.4544C92.5602 31.8259 92.1061 32.0949 91.6063 32.2341C91.1065 32.3734 90.5787 32.3779 90.0766 32.2471C90.0202 32.2316 89.9642 32.2144 89.908 32.1984C89.6267 32.3256 89.2764 32.1517 89.0989 31.8688C88.9096 31.5672 88.8722 31.1813 88.8641 30.8137C88.8537 30.3329 88.8833 29.8521 88.9527 29.3763C89.031 28.8405 89.1015 28.1542 88.6772 27.8851C88.3468 27.6756 87.9362 27.8823 87.6036 28.0875C87.5717 27.5542 87.6173 27.0191 87.739 26.4988Z" fill="#2F2E41"/>
<path d="M116.709 81.9521L0.185251 82C0.1362 81.9998 0.0892073 81.9802 0.0545729 81.9455C0.0199385 81.9108 0.000488281 81.8637 0.000488281 81.8147C0.000488281 81.7656 0.0199385 81.7186 0.0545729 81.6838C0.0892073 81.6491 0.1362 81.6295 0.185251 81.6294L116.709 81.5815C116.758 81.5815 116.805 81.6011 116.84 81.6358C116.874 81.6706 116.894 81.7177 116.894 81.7668C116.894 81.816 116.874 81.8631 116.84 81.8979C116.805 81.9326 116.758 81.9521 116.709 81.9521Z" fill="#CACACA"/>
</g>
<defs>
<clipPath id="clip0_677_11203">
<rect width="116.894" height="82" fill="white"/>
</clipPath>
</defs>
</svg>
