<svg width="112" height="82" viewBox="0 0 112 82" fill="none" xmlns="http://www.w3.org/2000/svg">
<g clip-path="url(#clip0_677_11065)">
<path d="M58.8659 81.3055H57.9294L58.2416 63.0063H58.5538L58.8659 81.3055Z" fill="#E6E6E6"/>
<path d="M59.6034 51.4688L61.1113 49.1383C60.6641 47.9029 60.1476 46.6938 59.5642 45.5167L58.5891 46.3042L59.3612 45.111C58.6254 43.6626 58.0464 42.75 58.0464 42.75C58.0464 42.75 55.0221 47.5159 54.0117 52.5618L55.9468 55.5524L53.8045 53.8221C53.7282 54.4099 53.689 55.002 53.687 55.5947C53.687 61.5708 55.6388 66.4154 58.0464 66.4154C60.4541 66.4154 62.4058 61.5708 62.4058 55.5947C62.4058 53.742 61.9867 51.8038 61.4085 50.0108L59.6034 51.4688Z" fill="#E6E6E6"/>
<path d="M35.1666 81.3055H34.2302L34.5424 63.0063H34.8544L35.1666 81.3055Z" fill="#E6E6E6"/>
<path d="M36.255 51.4688L37.763 49.1383C37.3158 47.9029 36.7992 46.6938 36.2158 45.5167L35.2407 46.3042L36.0128 45.111C35.277 43.6626 34.698 42.75 34.698 42.75C34.698 42.75 31.6737 47.5159 30.6633 52.5618L32.5984 55.5524L30.4562 53.8221C30.3799 54.4099 30.3406 55.002 30.3386 55.5947C30.3386 61.5708 32.2904 66.4154 34.698 66.4154C37.1057 66.4154 39.0574 61.5708 39.0574 55.5947C39.0574 53.742 38.6383 51.8038 38.0601 50.0108L36.255 51.4688Z" fill="#E6E6E6"/>
<path d="M46.7948 81.2487H44.9233L45.5472 43.6108H46.1711L46.7948 81.2487Z" fill="#E6E6E6"/>
<path d="M48.4218 19.8807L51.5312 15.0753C50.6091 12.5282 49.544 10.0351 48.3412 7.60791L46.3306 9.23184L47.9226 6.77151C46.4054 3.78499 45.2116 1.90332 45.2116 1.90332C45.2116 1.90332 38.9757 11.73 36.8923 22.1343L40.8823 28.3007L36.4652 24.733C36.3079 25.945 36.227 27.1657 36.2229 28.3878C36.2229 40.7099 40.2473 50.699 45.2116 50.699C50.1759 50.699 54.2003 40.7099 54.2003 28.3878C54.2003 24.5678 53.3361 20.5713 52.1439 16.8744L48.4218 19.8807Z" fill="#E6E6E6"/>
<path d="M37.709 17.2594C42.4751 17.2594 46.3387 13.3957 46.3387 8.62969C46.3387 3.86365 42.4751 0 37.709 0C32.943 0 29.0793 3.86365 29.0793 8.62969C29.0793 13.3957 32.943 17.2594 37.709 17.2594Z" fill="#E6E6E6"/>
<path d="M111.919 81.1968H0V81.4792H111.919V81.1968Z" fill="#3F3D56"/>
<path d="M100.731 36.8555C100.778 36.8555 100.824 36.8463 100.867 36.8285C100.911 36.8106 100.95 36.7844 100.983 36.7514C101.016 36.7184 101.042 36.6792 101.06 36.636C101.078 36.5929 101.087 36.5466 101.087 36.4999V32.7067C101.088 32.6497 101.074 32.5934 101.048 32.5426C101.022 32.4919 100.984 32.4482 100.938 32.4153C100.891 32.3825 100.837 32.3615 100.78 32.3541C100.724 32.3467 100.666 32.3532 100.613 32.3729V28.0838C100.613 27.9281 100.582 27.774 100.523 27.6302C100.463 27.4864 100.376 27.3557 100.266 27.2456C100.156 27.1356 100.025 27.0482 99.8811 26.9887C99.7372 26.9291 99.5831 26.8984 99.4274 26.8984H60.6658C60.5102 26.8984 60.356 26.9291 60.2122 26.9887C60.0684 27.0482 59.9377 27.1356 59.8277 27.2456C59.7176 27.3557 59.6303 27.4864 59.5707 27.6302C59.5111 27.774 59.4805 27.9281 59.4805 28.0838V80.1215C59.4805 80.4359 59.6054 80.7374 59.8277 80.9597C60.05 81.182 60.3515 81.3069 60.6658 81.3069H99.4274C99.7418 81.3069 100.043 81.182 100.266 80.9597C100.488 80.7374 100.613 80.4359 100.613 80.1215V42.1679C100.666 42.1877 100.724 42.1941 100.78 42.1867C100.837 42.1794 100.891 42.1583 100.938 42.1255C100.984 42.0927 101.022 42.049 101.048 41.9982C101.074 41.9475 101.088 41.8911 101.087 41.8341V38.0409C101.088 37.9839 101.074 37.9275 101.048 37.8768C101.022 37.826 100.984 37.7823 100.938 37.7495C100.891 37.7167 100.837 37.6956 100.78 37.6882C100.724 37.6809 100.666 37.6873 100.613 37.7071V36.8338C100.651 36.8478 100.691 36.8551 100.731 36.8555Z" fill="#3F3D56"/>
<path d="M97.0568 29.21C97.2125 29.21 97.3666 29.2406 97.5104 29.3002C97.6543 29.3598 97.7849 29.4471 97.895 29.5571C98.0051 29.6672 98.0924 29.7979 98.152 29.9417C98.2115 30.0855 98.2422 30.2397 98.2422 30.3953V77.8101C98.2422 78.1245 98.1173 78.426 97.895 78.6483C97.6727 78.8706 97.3712 78.9955 97.0568 78.9955H63.0367C62.7223 78.9955 62.4208 78.8706 62.1985 78.6483C61.9762 78.426 61.8513 78.1245 61.8513 77.8101V30.3953C61.8513 30.081 61.9762 29.7795 62.1985 29.5571C62.4208 29.3348 62.7223 29.21 63.0367 29.21H97.0568Z" fill="white"/>
<path d="M80.047 28.5577C80.3091 28.5577 80.5215 28.3454 80.5215 28.0835C80.5215 27.8217 80.3091 27.6094 80.047 27.6094C79.7849 27.6094 79.5725 27.8217 79.5725 28.0835C79.5725 28.3454 79.7849 28.5577 80.047 28.5577Z" fill="white"/>
<path d="M94.124 35.4297H64.9885V38.3251H94.124V35.4297Z" fill="#EDA268"/>
<path d="M94.124 42.25H64.9885V43.3467H94.124V42.25Z" fill="#E6E6E6"/>
<path d="M94.124 45.5972H64.9885V46.6938H94.124V45.5972Z" fill="#E6E6E6"/>
<path d="M80.0428 48.9868H64.9885V50.0835H80.0428V48.9868Z" fill="#E6E6E6"/>
<path d="M94.124 52.437H64.9885V53.5337H94.124V52.437Z" fill="#E6E6E6"/>
<path d="M94.124 55.8867H64.9885V56.9834H94.124V55.8867Z" fill="#E6E6E6"/>
<path d="M79.5386 59.3364H64.9885V60.4331H79.5386V59.3364Z" fill="#E6E6E6"/>
<path d="M94.124 62.7861H64.9885V63.8828H94.124V62.7861Z" fill="#E6E6E6"/>
<path d="M94.124 66.2358H64.9885V67.3325H94.124V66.2358Z" fill="#E6E6E6"/>
<path d="M94.1588 70.4673H84.9583V73.4921H94.1588V70.4673Z" fill="#EDA268"/>
<path d="M33.7707 46.1391H33.5634V39.2355C33.5634 38.1712 33.1406 37.1505 32.3881 36.398C31.6355 35.6454 30.6148 35.2227 29.5506 35.2227H14.8451C14.3181 35.2227 13.7963 35.3265 13.3095 35.5281C12.8226 35.7298 12.3802 36.0254 12.0076 36.398C11.635 36.7706 11.3394 37.213 11.1377 37.6999C10.9361 38.1867 10.8323 38.7085 10.8323 39.2355V77.2939C10.8323 77.8208 10.9361 78.3427 11.1377 78.8295C11.3394 79.3164 11.635 79.7588 12.0076 80.1314C12.3802 80.504 12.8226 80.7996 13.3095 81.0013C13.7963 81.2029 14.3181 81.3067 14.8451 81.3067H29.5506C30.6148 81.3067 31.6355 80.8839 32.3881 80.1314C33.1406 79.3788 33.5634 78.3582 33.5634 77.2939V51.0446H33.7707V46.1391Z" fill="#3F3D56"/>
<path d="M32.6652 38.9605V77.2046C32.6652 77.9995 32.3495 78.7617 31.7874 79.3237C31.2254 79.8858 30.4632 80.2015 29.6683 80.2015H14.9346C14.1398 80.2015 13.3775 79.8858 12.8155 79.3237C12.2535 78.7617 11.9377 77.9995 11.9377 77.2046V38.9605C11.9377 38.2441 12.2223 37.557 12.7289 37.0504C13.2355 36.5439 13.9226 36.2593 14.639 36.2593H16.7192C16.6406 36.4558 16.6056 36.6669 16.6166 36.8782C16.6276 37.0896 16.6844 37.296 16.7829 37.4832C16.9028 37.69 17.0727 37.8634 17.277 37.9875C17.4813 38.1117 17.7135 38.1826 17.9522 38.1938H26.5243C26.7631 38.1826 26.9953 38.1117 27.1996 37.9875C27.4039 37.8634 27.5738 37.6899 27.6937 37.4831C27.7922 37.2959 27.8489 37.0895 27.8599 36.8782C27.8709 36.6669 27.8359 36.4557 27.7574 36.2593H29.964C30.6804 36.2593 31.3675 36.5439 31.874 37.0505C32.3806 37.557 32.6652 38.2441 32.6652 38.9605Z" fill="white"/>
<path d="M49.7375 28.5802C49.7375 28.5802 48.1744 28.022 47.1695 30.255C46.1647 32.488 44.6016 34.9443 44.6016 34.9443L45.4948 35.1676C45.4948 35.1676 45.7181 33.6045 46.2763 33.3812L46.053 35.3909C46.053 35.3909 52.752 37.7356 55.7666 35.1676L55.655 34.3861C55.655 34.3861 56.1016 34.4977 56.1016 35.1676L56.4365 34.8327C56.4365 34.8327 56.1016 34.1628 55.0967 33.2696C54.4372 32.6833 54.2105 31.5679 54.1326 30.8706C54.0743 30.2883 53.8413 29.7373 53.4643 29.2897C52.7965 28.5158 51.5797 27.6932 49.7375 28.5802Z" fill="#2F2E41"/>
<path d="M40.5574 47.7362L42.019 49.5965L42.9493 48.5334L42.152 47.2046L40.5574 47.7362Z" fill="#FBBEBE"/>
<path d="M40.0259 76.3052L39.4944 79.0956L40.8232 79.76L41.7533 79.0956V76.3052H40.0259Z" fill="#FBBEBE"/>
<path d="M49.3273 76.3052L49.8589 79.0956L48.5301 79.76L47.5999 79.0956V76.3052H49.3273Z" fill="#FBBEBE"/>
<path d="M43.8793 51.1909L42.0189 64.4788L39.3613 76.571L42.5505 76.9696L45.0753 65.6747L48.2643 56.1074L47.8657 67.5352L47.2013 76.9696H49.5931L51.3206 64.2131L53.2307 54.7288L53.1808 51.1909H43.8793Z" fill="#2F2E41"/>
<path d="M40.4245 78.8301C40.4245 78.8301 39.7601 78.0328 39.3614 78.4314C38.9628 78.8301 38.0326 80.4246 38.0326 80.4246C38.0326 80.4246 35.9066 81.6206 37.634 81.8863C39.3614 82.1521 39.8929 81.8863 39.8929 81.7534C39.8929 81.6206 40.1587 81.2219 40.1587 81.2219L40.8231 81.3548L41.7533 81.089C41.7533 81.089 42.1519 78.6407 41.7533 78.7354C41.3546 78.8301 40.5574 79.2287 40.4245 78.8301Z" fill="#2F2E41"/>
<path d="M48.9288 78.8301C48.9288 78.8301 49.5932 78.0328 49.9919 78.4314C50.3905 78.8301 51.3207 80.4246 51.3207 80.4246C51.3207 80.4246 53.4467 81.6206 51.7193 81.8863C49.9919 82.1521 49.4603 81.8863 49.4603 81.7534C49.4603 81.6206 49.1946 81.2219 49.1946 81.2219L48.5302 81.3548L47.6 81.089C47.6 81.089 47.2014 78.6407 47.6 78.7354C47.9987 78.8301 48.7959 79.2287 48.9288 78.8301Z" fill="#2F2E41"/>
<path d="M50.191 35.4446C51.6588 35.4446 52.8486 34.2547 52.8486 32.787C52.8486 31.3192 51.6588 30.1294 50.191 30.1294C48.7233 30.1294 47.5334 31.3192 47.5334 32.787C47.5334 34.2547 48.7233 35.4446 50.191 35.4446Z" fill="#FBBEBE"/>
<path d="M51.9849 34.4482C51.9849 34.4482 51.7192 36.7072 51.8521 37.2387C51.9849 37.7702 52.2507 38.5675 52.2507 38.5675L47.9985 37.7702C47.9985 37.7702 49.1944 35.2455 48.9287 34.8469C48.6629 34.4482 51.9849 34.4482 51.9849 34.4482Z" fill="#FBBEBE"/>
<path d="M52.3836 37.6372L47.9986 36.707L45.4739 52.1211C46.6119 51.8104 47.8179 51.8567 48.9288 52.254C50.7891 52.9184 53.3138 52.254 53.3138 52.254L52.7823 37.7701L52.3836 37.6372Z" fill="#EDA268"/>
<path d="M48.8918 35.4863L47.3343 36.3085L45.3411 36.7071L43.215 41.7566L43.4808 45.3443C43.4808 45.3443 41.2218 49.4636 40.9561 51.7226C40.9561 51.7226 41.2218 55.1775 45.6069 55.0446L48.5302 46.9389C48.5302 46.9389 49.7261 40.8264 48.5302 39.099C48.5302 39.099 49.3863 35.8601 48.8918 35.4863Z" fill="#2F2E41"/>
<path d="M46.1383 36.7072L45.708 36.6338L45.341 36.7072C45.341 36.7072 44.4108 36.8401 43.3478 37.7702C42.2848 38.7004 38.697 41.6238 38.4312 42.421C38.1655 43.2183 38.2984 44.5471 38.697 45.3444C39.0956 46.1417 39.8929 47.2047 39.8929 47.2047L40.2916 48.1349L42.5505 47.4705C42.5505 47.4705 41.0888 44.68 41.2217 43.4841L43.8793 41.358L46.1383 36.7072Z" fill="#2F2E41"/>
<path d="M51.838 36.0869L53.8454 38.5673L54.9085 39.8961L53.5797 44.414L52.9153 48.2675C52.9153 48.2675 54.5098 54.38 53.181 56.2403C53.181 56.2403 52.3837 57.1705 52.118 56.1075C51.8522 55.0444 51.8522 49.995 51.8522 49.995C51.8522 49.995 50.7892 43.351 51.3207 41.6235C51.8522 39.8961 51.2922 36.397 51.838 36.0869Z" fill="#2F2E41"/>
<path d="M53.7124 55.3101V56.6389C53.7124 56.6389 53.4466 61.024 54.7754 60.4925C56.1042 59.9609 55.174 56.6389 55.174 56.6389L55.0412 55.1772L53.7124 55.3101Z" fill="#FBBEBE"/>
<path d="M47.2288 32.9287C48.2394 32.1973 49.0575 31.3548 49.5987 30.3527C49.5987 30.3527 51.4535 32.4135 52.5869 32.5165C53.7204 32.6196 52.69 30.0435 52.69 30.0435L50.6291 29.5283L48.6714 29.7344L47.1257 30.7648L47.2288 32.9287Z" fill="#2F2E41"/>
<path d="M53.8454 39.4976L54.9084 39.8962L55.0414 41.225L55.5729 49.3307L55.307 55.4433L53.3139 55.5761L52.6495 48.7992L52.3838 41.358L53.8454 39.4976Z" fill="#2F2E41"/>
<path d="M30.3485 47.0981H14.1965V48.7033H30.3485V47.0981Z" fill="#EDA268"/>
<path d="M30.3485 50.8789H14.1965V51.4869H30.3485V50.8789Z" fill="#E6E6E6"/>
<path d="M30.3485 52.7344H14.1965V53.3423H30.3485V52.7344Z" fill="#E6E6E6"/>
<path d="M22.5422 54.6138H14.1965V55.2217H22.5422V54.6138Z" fill="#E6E6E6"/>
<path d="M30.3485 56.5264H14.1965V57.1343H30.3485V56.5264Z" fill="#E6E6E6"/>
<path d="M30.3485 58.4385H14.1965V59.0464H30.3485V58.4385Z" fill="#E6E6E6"/>
<path d="M22.2627 60.3511H14.1965V60.959H22.2627V60.3511Z" fill="#E6E6E6"/>
<path d="M30.3485 62.2637H14.1965V62.8716H30.3485V62.2637Z" fill="#E6E6E6"/>
<path d="M30.3485 64.1763H14.1965V64.7842H30.3485V64.1763Z" fill="#E6E6E6"/>
<path d="M30.3677 66.522H25.2671V68.1989H30.3677V66.522Z" fill="#EDA268"/>
</g>
<defs>
<clipPath id="clip0_677_11065">
<rect width="111.919" height="82" fill="white"/>
</clipPath>
</defs>
</svg>
