<svg width="110" height="82" viewBox="0 0 110 82" fill="none" xmlns="http://www.w3.org/2000/svg">
<g clip-path="url(#clip0_677_10965)">
<path d="M41.1633 13.7826C44.3997 16.4964 48.0076 14.2244 51.4655 14.0508C53.0691 13.9703 54.6695 14.3577 56.2499 14.6467C57.7501 14.921 59.2447 15.32 60.6161 16.0005C62.111 16.7161 63.3825 17.8272 64.2935 19.2138C64.4744 19.4972 64.7473 19.2879 64.7453 18.9491C64.7235 15.3516 63.1713 15.6429 61.5507 15.9083C60.01 16.1605 58.7002 14.6284 57.1799 14.2986C55.5889 13.9778 53.981 13.7482 52.3639 13.6109C50.6109 13.4365 48.8534 13.3181 47.0916 13.2559C45.1162 13.1861 43.1401 13.1869 41.1633 13.2583C40.8275 13.2702 40.826 13.7947 41.1633 13.7826Z" fill="#3F3D56"/>
<path d="M30.247 42.7232C30.2932 42.7729 30.3184 42.8386 30.3172 42.9065C30.316 42.9745 30.2886 43.0393 30.2406 43.0873C30.1927 43.1353 30.128 43.1629 30.0602 43.1641C29.9924 43.1653 29.9268 43.14 29.8772 43.0937C27.7388 41.2568 25.6004 39.4209 23.4619 37.5863C23.4594 37.5835 23.4565 37.5811 23.4532 37.5793C23.3047 37.4676 23.1642 37.3455 23.0328 37.214C21.0426 36.9816 18.8553 36.2125 16.7832 35.8787C14.9535 36.1513 13.129 36.4764 11.294 36.7176C9.69528 36.9403 8.08351 37.0559 6.46942 37.0637C5.156 37.0567 5.536 33.6827 4.34467 33.0605C3.10626 32.4138 0.622699 34.5066 0.305244 33.1992C0.148396 32.5299 0.0463097 31.8489 0 31.163V26.9C0.169192 25.0438 3.11846 25.6164 4.5191 24.3213C6.62092 22.3777 7.33457 17.8183 10.0242 17.7641C13.2295 17.6963 16.4357 17.837 19.6228 18.1853C22.2217 18.4719 24.955 18.7499 27.3585 19.8597C28.3894 20.3369 29.3609 23.0967 30.0708 23.9934C30.881 25.0408 31.3396 26.3183 31.3808 27.6429C31.5081 30.4551 30.2313 33.0279 29.5319 35.6829C28.9249 37.9813 28.583 40.7674 30.247 42.7232Z" fill="#F2F2F2"/>
<path d="M23.7048 37.8559C25.8728 39.718 28.0412 41.5798 30.2098 43.4412C30.2594 43.4875 30.3251 43.5128 30.3929 43.5116C30.4607 43.5104 30.5254 43.4829 30.5734 43.4348C30.6214 43.3867 30.6489 43.3219 30.6501 43.2539C30.6513 43.1859 30.6261 43.1201 30.5798 43.0704C28.9159 41.116 29.2578 38.3299 29.8643 36.0302C30.5646 33.375 31.8414 30.8031 31.7136 27.9915C31.6731 26.6666 31.2143 25.3887 30.4033 24.3415C29.6702 23.4603 28.7416 22.7631 27.6917 22.3056C25.2882 21.1957 22.5555 20.9166 19.9554 20.6307C16.7687 20.2821 13.5628 20.1412 10.3579 20.2089C7.6675 20.2643 4.52029 20.3135 2.41861 22.2577C0.50458 24.0282 0.243153 26.8126 0.261611 29.2709C0.272303 30.6951 0.299572 32.158 0.637454 33.548C0.955073 34.8546 1.64385 36.1272 2.88266 36.7737C4.07422 37.3956 5.48983 37.4053 6.80202 37.4117C8.41609 37.4048 10.0279 37.2889 11.6264 37.0647C14.8257 36.6454 17.9945 35.968 21.2197 35.7633C22.0089 35.7133 22.8005 35.691 23.5912 35.7075C23.9281 35.7146 23.9281 35.1902 23.5912 35.1832C20.4553 35.1175 17.3516 35.6571 14.2662 36.1486C11.2819 36.6239 8.23108 37.072 5.20186 36.8315C4.53779 36.8004 3.88484 36.649 3.2746 36.3847C2.68523 36.1041 2.18654 35.663 1.83554 35.1117C1.04693 33.8811 0.897508 32.3394 0.829386 30.9037C0.751673 29.6611 0.763184 28.4146 0.863826 27.1737C0.980051 25.9705 1.25994 24.7501 1.8993 23.7114C3.35772 21.3421 6.30642 20.3561 8.82303 20.7818C11.657 21.2611 13.8247 23.531 18.1491 20.9801C19.5066 20.1794 21.2854 21.2937 22.843 21.5291C24.0071 21.69 25.1552 21.9504 26.275 22.3075C27.3523 22.6369 28.3562 23.1716 29.2314 23.8822C30.1475 24.6585 30.7852 25.7136 31.0474 26.8867C31.648 29.5884 30.4575 32.2851 29.6708 34.8133C28.9695 37.067 28.3713 39.7138 29.3155 41.9878C29.5357 42.5163 29.8375 43.0067 30.2098 43.4412L30.5798 43.0704C28.4118 41.2083 26.2434 39.3465 24.0748 37.4851C23.8204 37.2666 23.4486 37.6358 23.7048 37.8559Z" fill="#E6E6E6"/>
<path d="M14.4669 25.6563H6.57929C6.50692 25.6563 6.4375 25.6275 6.38632 25.5762C6.33514 25.5249 6.3064 25.4554 6.3064 25.3828C6.3064 25.3103 6.33514 25.2407 6.38632 25.1895C6.4375 25.1382 6.50692 25.1094 6.57929 25.1094H14.4669C14.5393 25.1094 14.6087 25.1382 14.6599 25.1895C14.711 25.2407 14.7398 25.3103 14.7398 25.3828C14.7398 25.4554 14.711 25.5249 14.6599 25.5762C14.6087 25.6275 14.5393 25.6563 14.4669 25.6563Z" fill="#026498"/>
<path d="M14.4669 31.4873H6.57929C6.54345 31.4873 6.50797 31.4803 6.47486 31.4665C6.44175 31.4528 6.41166 31.4326 6.38632 31.4072C6.36098 31.3819 6.34088 31.3517 6.32717 31.3185C6.31345 31.2854 6.3064 31.2498 6.3064 31.2139C6.3064 31.178 6.31345 31.1424 6.32717 31.1092C6.34088 31.0761 6.36098 31.0459 6.38632 31.0205C6.41166 30.9951 6.44175 30.975 6.47486 30.9612C6.50797 30.9475 6.54345 30.9404 6.57929 30.9404H14.4669C14.5393 30.9404 14.6087 30.9692 14.6599 31.0205C14.711 31.0718 14.7398 31.1414 14.7398 31.2139C14.7398 31.2864 14.711 31.356 14.6599 31.4072C14.6087 31.4585 14.5393 31.4873 14.4669 31.4873Z" fill="#026498"/>
<path d="M20.8729 28.5738H6.57929C6.50692 28.5738 6.4375 28.545 6.38632 28.4937C6.33514 28.4424 6.3064 28.3728 6.3064 28.3003C6.3064 28.2278 6.33514 28.1582 6.38632 28.1069C6.4375 28.0557 6.50692 28.0269 6.57929 28.0269H20.8729C20.9452 28.0269 21.0147 28.0557 21.0658 28.1069C21.117 28.1582 21.1458 28.2278 21.1458 28.3003C21.1458 28.3728 21.117 28.4424 21.0658 28.4937C21.0147 28.545 20.9452 28.5738 20.8729 28.5738Z" fill="#026498"/>
<path d="M38.9682 56.0071C39.0144 56.0568 39.0396 56.1226 39.0384 56.1905C39.0372 56.2584 39.0097 56.3232 38.9618 56.3713C38.9139 56.4193 38.8492 56.4468 38.7814 56.448C38.7136 56.4492 38.648 56.424 38.5984 56.3777C36.46 54.5407 34.3216 52.7049 32.1831 50.8702C32.1806 50.8674 32.1777 50.865 32.1744 50.8632C32.0259 50.7515 31.8854 50.6295 31.754 50.4979C29.7638 50.2655 27.5765 49.4964 25.5044 49.1626C23.6747 49.4353 21.5013 51.5082 19.6664 51.7494C18.0676 51.9721 16.4559 52.0877 14.8418 52.0955C13.5284 52.0885 13.9084 47.8406 12.717 47.2183C11.4786 46.5716 9.3439 47.7906 9.02644 46.4832C8.86423 45.8172 8.06331 45.1338 8.01099 44.4469V40.184C8.18018 38.3278 9.40669 36.489 10.8073 35.1939C12.9091 33.2503 16.0558 33.1996 18.7454 33.1454C21.9507 33.0777 25.1569 33.2184 28.344 33.5667C30.9429 33.8533 33.6762 34.1312 36.0797 35.2411C37.1297 35.6991 38.0584 36.3963 38.7921 37.2773C39.6022 38.3247 40.0608 39.6022 40.102 40.9268C40.2293 43.7391 38.9525 46.3119 38.2531 48.9669C37.6461 51.2652 37.3042 54.0513 38.9682 56.0071Z" fill="#F2F2F2"/>
<path d="M32.4262 51.1396C34.5943 53.0017 36.7626 54.8634 38.9312 56.7249C38.9808 56.7712 39.0465 56.7965 39.1143 56.7953C39.1822 56.7941 39.2469 56.7666 39.2949 56.7185C39.3428 56.6704 39.3703 56.6056 39.3715 56.5376C39.3727 56.4696 39.3475 56.4038 39.3012 56.3541C37.6373 54.3997 37.9792 51.6136 38.5858 49.3139C39.2861 46.6587 40.5628 44.0868 40.435 41.2752C40.3945 39.9503 39.9357 38.6724 39.1247 37.6252C38.3916 36.744 37.463 36.0468 36.4131 35.5893C34.0096 34.4794 31.2769 34.2003 28.6768 33.9144C25.4901 33.5658 22.2843 33.4249 19.0794 33.4925C16.3889 33.548 13.2417 33.5972 11.14 35.5414C9.22602 37.3119 8.96459 40.0963 8.98305 42.5546C8.99374 43.9788 9.02101 45.4417 9.35889 46.8317C9.67651 48.1383 10.3653 49.4109 11.6041 50.0574C12.7957 50.6793 14.2113 50.689 15.5235 50.6954C17.1375 50.6885 18.7493 50.5726 20.3478 50.3484C23.5471 49.9291 26.7159 49.2517 29.9411 49.047C30.7303 48.997 31.5219 48.9747 32.3127 48.9912C32.6495 48.9983 32.6495 48.4739 32.3127 48.4669C29.1768 48.4012 26.0731 48.9408 22.9876 49.4323C20.0033 49.9076 16.9525 50.3557 13.9233 50.1152C13.2592 50.0841 12.6063 49.9327 11.996 49.6684C11.4067 49.3878 10.908 48.9467 10.557 48.3954C9.76836 47.1648 9.61894 45.6231 9.55082 44.1874C9.47311 42.9448 9.48462 41.6983 9.58526 40.4574C9.70149 39.2542 9.98138 38.0338 10.6207 36.9951C12.0792 34.6257 15.4041 32.6724 17.5445 34.0654C19.9899 35.657 23.1175 35.7258 26.8706 34.2638C28.3387 33.6918 30.0069 34.5774 31.5645 34.8128C32.7285 34.9737 33.8767 35.2341 34.9964 35.5912C36.0738 35.9206 37.0776 36.4553 37.9528 37.1658C38.8689 37.9422 39.5066 38.9973 39.7688 40.1704C40.3695 42.8721 39.179 45.5688 38.3922 48.097C37.691 50.3507 37.0927 52.9975 38.0369 55.2715C38.2571 55.8 38.5589 56.2904 38.9312 56.7249L39.3012 56.3541C37.1332 54.492 34.9649 52.6302 32.7962 50.7688C32.5418 50.5503 32.17 50.9195 32.4262 51.1396Z" fill="#E6E6E6"/>
<path d="M23.1881 38.9395H15.3005C15.2281 38.9395 15.1587 38.9107 15.1075 38.8594C15.0563 38.8081 15.0276 38.7386 15.0276 38.666C15.0276 38.5935 15.0563 38.524 15.1075 38.4727C15.1587 38.4214 15.2281 38.3926 15.3005 38.3926H23.1881C23.2605 38.3926 23.3299 38.4214 23.381 38.4727C23.4322 38.524 23.461 38.5935 23.461 38.666C23.461 38.7386 23.4322 38.8081 23.381 38.8594C23.3299 38.9107 23.2605 38.9395 23.1881 38.9395Z" fill="#026498"/>
<path d="M23.1881 44.771H15.3005C15.2281 44.771 15.1587 44.7422 15.1075 44.6909C15.0563 44.6397 15.0276 44.5701 15.0276 44.4976C15.0276 44.4251 15.0563 44.3555 15.1075 44.3042C15.1587 44.2529 15.2281 44.2241 15.3005 44.2241H23.1881C23.2605 44.2241 23.3299 44.2529 23.381 44.3042C23.4322 44.3555 23.461 44.4251 23.461 44.4976C23.461 44.5701 23.4322 44.6397 23.381 44.6909C23.3299 44.7422 23.2605 44.771 23.1881 44.771Z" fill="#026498"/>
<path d="M29.5941 41.8575H15.3005C15.2281 41.8575 15.1587 41.8286 15.1075 41.7774C15.0563 41.7261 15.0276 41.6565 15.0276 41.584C15.0276 41.5115 15.0563 41.4419 15.1075 41.3906C15.1587 41.3394 15.2281 41.3105 15.3005 41.3105H29.5941C29.6664 41.3105 29.7359 41.3394 29.787 41.3906C29.8382 41.4419 29.867 41.5115 29.867 41.584C29.867 41.6565 29.8382 41.7261 29.787 41.7774C29.7359 41.8286 29.6664 41.8575 29.5941 41.8575Z" fill="#026498"/>
<path d="M81.9626 65.7037H59.9199C59.7176 65.7037 59.5236 65.6232 59.3806 65.4799C59.2376 65.3366 59.1572 65.1422 59.1572 64.9395C59.1572 64.7368 59.2376 64.5424 59.3806 64.3991C59.5236 64.2558 59.7176 64.1753 59.9199 64.1753H81.9626C82.1648 64.1753 82.3588 64.2558 82.5018 64.3991C82.6449 64.5424 82.7252 64.7368 82.7252 64.9395C82.7252 65.1422 82.6449 65.3366 82.5018 65.4799C82.3588 65.6232 82.1648 65.7037 81.9626 65.7037Z" fill="#F2F2F2"/>
<path d="M81.9626 82.0001H59.9199C59.7176 82.0001 59.5236 81.9196 59.3806 81.7763C59.2376 81.6329 59.1572 81.4386 59.1572 81.2359C59.1572 81.0332 59.2376 80.8388 59.3806 80.6955C59.5236 80.5522 59.7176 80.4717 59.9199 80.4717H81.9626C82.1648 80.4717 82.3588 80.5522 82.5018 80.6955C82.6449 80.8388 82.7252 81.0332 82.7252 81.2359C82.7252 81.4386 82.6449 81.6329 82.5018 81.7763C82.3588 81.9196 82.1648 82.0001 81.9626 82.0001Z" fill="#F2F2F2"/>
<path d="M99.8647 73.857H59.9198C59.8195 73.8572 59.7203 73.8375 59.6276 73.7992C59.5349 73.7609 59.4507 73.7046 59.3798 73.6336C59.3088 73.5626 59.2526 73.4783 59.2142 73.3855C59.1758 73.2927 59.156 73.1933 59.156 73.0928C59.156 72.9924 59.1758 72.8929 59.2142 72.8001C59.2526 72.7073 59.3088 72.623 59.3798 72.552C59.4507 72.4811 59.5349 72.4248 59.6276 72.3865C59.7203 72.3481 59.8195 72.3285 59.9198 72.3286H99.8647C100.067 72.3289 100.26 72.4096 100.403 72.5529C100.546 72.6961 100.626 72.8903 100.626 73.0928C100.626 73.2953 100.546 73.4895 100.403 73.6328C100.26 73.7761 100.067 73.8567 99.8647 73.857Z" fill="#F2F2F2"/>
<path d="M47.4783 72.9991L48.7306 74.1801L53.9739 69.7944L52.1256 68.0513L47.4783 72.9991Z" fill="#FFB6B6"/>
<path d="M49.7584 78.106L49.0625 74.8545L49.9059 73.9565L49.4519 73.5759L48.0422 72.3988L47.6973 72.1094L44.4546 75.0319L45.3946 75.9174L46.3966 75.187L45.99 76.4799L48.4796 78.8283C48.599 78.9408 48.7511 79.0122 48.9138 79.032C49.0765 79.0518 49.2412 79.019 49.384 78.9383C49.5268 78.8577 49.6401 78.7334 49.7075 78.5837C49.7748 78.434 49.7926 78.2666 49.7584 78.106Z" fill="#2F2E41"/>
<path d="M41.3738 77.5661L43.0739 77.8251L44.9019 71.2307L42.3928 70.8486L41.3738 77.5661Z" fill="#FFB6B6"/>
<path d="M46.1456 80.4702L43.7293 78.1907L43.9143 76.9715L43.3248 76.9168L41.4973 76.7508L41.0494 76.709L40.0381 80.9602L41.3137 81.1536L41.7241 79.9821L42.1226 81.2776L45.5028 81.7926C45.6649 81.8173 45.8305 81.7894 45.9757 81.713C46.1208 81.6367 46.2377 81.5159 46.3095 81.3682C46.3813 81.2206 46.4041 81.0538 46.3746 80.8923C46.3451 80.7307 46.2649 80.5828 46.1456 80.4702Z" fill="#2F2E41"/>
<path d="M57.7295 30.7207L62.6052 39.4711C62.6052 39.4711 62.4017 57.4677 63.0497 58.1352C63.6977 58.8027 64.2844 59.4013 63.6977 59.3959C63.111 59.3905 63.3003 63.6479 63.3003 63.6479L52.4859 72.0375L49.8696 69.9401L56.4333 61.8215L52.8084 45.2036C52.8084 45.2036 50.2042 60.919 49.7348 61.3893C49.2655 61.8596 48.9824 61.8563 49.4759 62.3283C49.9695 62.8003 49.4759 63.8677 49.4759 63.8677L44.3308 74.5681L41.54 74.2154C41.54 74.2154 42.0239 65.4799 43.7087 61.7298V44.0076C43.5817 45.5271 49.5176 30.148 45.8877 31.3023C47.0361 30.9371 57.7295 30.7207 57.7295 30.7207Z" fill="#2F2E41"/>
<path d="M55.493 9.86768H51.4623L50.8916 12.155L47.7925 13.0138C47.7925 13.0138 46.2596 23.2002 47.547 24.0218C48.8344 24.8435 47.9367 27.4136 47.9367 27.4136C47.9367 27.4136 44.7306 30.8833 45.1154 31.3974C45.5001 31.9114 46.2806 31.1293 45.3774 32.0344C44.4741 32.9395 43.9611 32.811 44.2176 33.068C44.3762 33.231 44.4992 33.4254 44.5786 33.6387L43.4724 36.5248C43.4724 36.5248 49.3474 37.6943 52.297 36.0237C55.2466 34.3531 61.7871 37.5658 61.7871 37.5658C61.7871 37.5658 61.4507 35.879 61.17 35.63C60.8894 35.3811 60.235 36.0105 60.6904 35.1818C61.1459 34.3531 61.5306 34.7386 61.1459 34.3531C60.7611 33.9675 59.094 28.8272 59.094 28.8272C59.094 28.8272 57.8115 26 59.2222 24.8435C60.6329 23.6869 61.17 19.8934 61.17 19.8934L59.479 13.0138L56.6573 12.3782L55.493 9.86768Z" fill="#E6E6E6"/>
<path d="M39.5374 36.1317L40.5055 32.2435L38.3661 31.3794L37.4885 35.5268C37.2883 35.6752 37.1334 35.8767 37.0412 36.1085C36.949 36.3404 36.9231 36.5934 36.9666 36.8391C37.01 37.0848 37.1209 37.3136 37.287 37.4996C37.453 37.6856 37.6676 37.8215 37.9065 37.892C38.1453 37.9626 38.3991 37.9649 38.6393 37.8988C38.8795 37.8328 39.0965 37.7009 39.2659 37.518C39.4354 37.3351 39.5506 37.1085 39.5985 36.8636C39.6465 36.6187 39.6253 36.3652 39.5374 36.1317Z" fill="#FFB6B6"/>
<path d="M48.941 12.7536L48.8772 12.7426C48.2832 12.6404 47.6733 12.6847 47.1003 12.8718C46.5273 13.059 46.0084 13.3832 45.5886 13.8165C44.4928 14.9463 39.6008 23.3484 39.7768 24.7526C39.9411 26.0621 40.0043 25.7708 39.4067 26.4394C38.8091 27.108 38.5817 26.0898 38.5725 27.4819C38.5633 28.8739 39.0941 28.8618 38.5299 29.2022C37.9657 29.5426 37.5926 29.3054 37.6957 30.2446C37.7987 31.1838 37.641 31.433 37.6076 31.7613C37.5742 32.0896 36.7642 34.1958 36.7642 34.1958C36.7642 34.1958 39.1482 34.8373 40.1096 35.7978C40.1096 35.7978 40.219 33.421 40.7043 33.2053C41.1897 32.9895 41.6416 33.102 41.5051 32.4911C41.3687 31.8801 40.668 31.6096 41.5264 31.6309C42.3848 31.6522 43.7107 27.078 43.7107 27.078L49.4438 16.5964L48.941 12.7536Z" fill="#E6E6E6"/>
<path d="M61.879 38.0577L62.0513 34.054L64.3475 33.8335L64.0151 38.06C64.165 38.2592 64.2566 38.4965 64.2794 38.745C64.3022 38.9935 64.2553 39.2435 64.1441 39.4668C64.0329 39.6901 63.8618 39.8779 63.6499 40.009C63.438 40.1402 63.1938 40.2096 62.9448 40.2093C62.6957 40.209 62.4517 40.1392 62.2401 40.0076C62.0285 39.8759 61.8577 39.6878 61.747 39.4642C61.6363 39.2407 61.59 38.9906 61.6133 38.7422C61.6366 38.4937 61.7287 38.2567 61.879 38.0577Z" fill="#FFB6B6"/>
<path d="M59.4788 12.9673L59.5431 12.9749C60.1416 13.0456 60.7139 13.2615 61.2104 13.6038C61.7069 13.9461 62.1127 14.4045 62.3926 14.9394C63.1237 16.3342 65.4366 25.7816 64.8703 27.0781C64.3421 28.2872 64.364 27.9898 64.7478 28.8009C65.1316 29.6119 65.6378 28.7001 65.2526 30.0376C64.8674 31.3751 64.3619 31.2126 64.8066 31.6994C65.2512 32.1861 65.6761 32.0648 65.3114 32.9361C64.9468 33.8075 65.0275 34.0913 64.9666 34.4155C64.9057 34.7398 65.0863 36.9898 65.0863 36.9898C65.0863 36.9898 62.6186 36.9274 61.4247 37.5752C61.4247 37.5752 61.9926 35.2649 61.5883 34.92C61.184 34.5752 60.7187 34.5546 61.0225 34.0076C61.3263 33.4605 62.0747 33.4002 61.2456 33.1767C60.4164 32.9532 60.4397 28.19 60.4397 28.19L57.9089 16.5094L59.4788 12.9673Z" fill="#E6E6E6"/>
<path d="M44.319 7.16883C44.2871 8.54749 44.8012 9.88243 45.5399 11.055C45.7866 10.3741 46.1322 9.73345 46.5654 9.15358C46.3579 10.4383 46.5789 11.7557 47.194 12.902C47.2157 12.9175 47.2381 12.9319 47.2613 12.9452C47.8634 13.3081 48.6267 13.4551 49.278 13.193C47.9323 11.7394 47.761 9.33103 48.8893 7.7006C49.2087 7.23796 49.6218 6.82879 49.8196 6.3023C50.132 5.46225 49.8317 4.53733 49.6423 3.66149C49.4652 2.84635 49.4342 1.87632 49.9799 1.27892C49.9216 1.19543 49.8422 1.12898 49.7499 1.08637C49.6575 1.04375 49.5555 1.02651 49.4543 1.03641C49.1178 1.08404 48.8729 1.37711 48.7169 1.67896C48.5609 1.9808 48.458 2.31535 48.2406 2.57605C47.838 3.06404 47.1524 3.17941 46.5746 3.43659C45.1754 4.06112 44.3526 5.63476 44.319 7.16883Z" fill="#2F2E41"/>
<path d="M56.0974 6.38065C56.0174 6.10022 56.5685 7.81446 56.3026 7.84541C55.0913 7.98465 53.4286 8.70954 52.5849 9.04772C52.5469 9.0433 52.5089 9.03888 52.4721 9.03335C52.3816 9.0234 52.2933 9.00904 52.2061 8.99246C50.2417 8.62002 49.4863 5.59627 49.4863 5.56864C49.4863 5.43271 49.8119 1.69921 50.3248 1.64396C50.4595 1.62931 50.5949 1.62193 50.7304 1.62185H52.0031C52.2665 1.56498 52.5334 1.52621 52.8021 1.50581H52.8043C55.3665 1.3102 57.3868 2.8751 57.1979 4.77928C57.1968 4.78149 57.1946 4.7837 57.1935 4.78591C57.1387 4.8677 57.0907 4.94506 57.0482 5.0191C57.0069 5.08873 56.9722 5.15503 56.942 5.21803C56.7085 5.7043 57.3088 6.31618 56.9108 6.43039C56.3813 6.58229 58.3031 11.5749 56.2076 11.5749C57.2269 11.8653 56.3179 7.15426 56.0974 6.38065Z" fill="#2F2E41"/>
<path d="M53.81 9.31005C55.4742 9.31005 56.8233 7.95816 56.8233 6.29052C56.8233 4.62288 55.4742 3.271 53.81 3.271C52.1457 3.271 50.7966 4.62288 50.7966 6.29052C50.7966 7.95816 52.1457 9.31005 53.81 9.31005Z" fill="#FFB6B6"/>
<path d="M57.1979 4.94382C57.1476 4.97035 57.0984 4.99466 57.0481 5.01898C56.9956 5.0444 56.9431 5.06982 56.8906 5.09302C55.8816 5.55166 55.0603 5.6025 54.5619 4.94383C54.5486 4.59725 54.4709 4.2562 54.3329 3.93813C54.3572 4.29357 54.2637 4.64712 54.0669 4.94383H53.0635C52.0299 5.63123 51.4991 5.70307 52.2165 7.9598C52.4165 8.58863 53.2118 12.2478 52.8989 12.7904C52.8084 12.7805 51.8455 8.77257 51.7584 8.75599C49.794 8.38355 48.5458 5.14054 48.7056 4.95709C48.7048 4.43539 48.8245 3.92059 49.0554 3.45297C49.3474 2.86053 49.8026 2.36428 50.3672 2.0229C50.7037 1.85938 51.0546 1.72731 51.4153 1.62836C51.4243 1.62615 51.4321 1.62393 51.441 1.62173C51.5516 1.59189 51.6645 1.56426 51.7774 1.54105C52.0105 1.49172 52.2463 1.45593 52.4835 1.43385C52.5003 1.43275 52.5171 1.43164 52.5327 1.43164C52.6275 1.43186 52.7204 1.45742 52.802 1.50569C52.8031 1.50569 52.8031 1.50679 52.8042 1.50679C52.8625 1.54093 52.9135 1.58639 52.954 1.64051C53.0254 1.73158 53.0639 1.84412 53.0635 1.95991H54.1809C54.2222 1.95991 54.2636 1.96101 54.3049 1.96322C55.0507 1.98876 55.7601 2.29224 56.2943 2.81429C56.8286 3.33634 57.1492 4.03937 57.1934 4.78579C57.1968 4.83883 57.1979 4.89077 57.1979 4.94382Z" fill="#2F2E41"/>
<path d="M50.6095 3.97856C51.7059 3.97856 52.5947 3.08793 52.5947 1.98928C52.5947 0.890632 51.7059 0 50.6095 0C49.5131 0 48.6243 0.890632 48.6243 1.98928C48.6243 3.08793 49.5131 3.97856 50.6095 3.97856Z" fill="#2F2E41"/>
<path d="M69.4724 61.9249C69.5535 61.9286 69.6338 61.9073 69.7023 61.8638C69.7709 61.8203 69.8245 61.7567 69.8558 61.6817C69.8871 61.6067 69.8947 61.5238 69.8774 61.4443C69.8601 61.3649 69.8189 61.2926 69.7593 61.2374L69.7322 61.1294C69.7358 61.1207 69.7394 61.1121 69.743 61.1034C69.8246 60.9101 69.9615 60.7453 70.1364 60.6297C70.3112 60.514 70.5163 60.4528 70.7258 60.4536C70.9353 60.4543 71.1399 60.5171 71.3139 60.6341C71.4879 60.751 71.6235 60.9168 71.7037 61.1107C72.0244 61.8847 72.4327 62.66 72.5333 63.4784C72.5775 63.8401 72.5589 64.2068 72.4781 64.5621C73.2313 62.9156 73.6224 61.1262 73.6249 59.315C73.6251 58.8605 73.5999 58.4063 73.5495 57.9546C73.5078 57.5843 73.4499 57.2167 73.376 56.8517C72.9722 54.8712 72.1055 53.0148 70.8468 51.4352C70.2376 51.1021 69.7449 50.5899 69.4352 49.9676C69.3229 49.7439 69.2436 49.5051 69.1997 49.2587C69.2684 49.2677 69.4588 48.2189 69.407 48.1546C69.5028 48.009 69.6742 47.9366 69.7788 47.7945C70.299 47.0878 71.0156 47.2111 71.3898 48.1715C72.189 48.5757 72.1968 49.2461 71.7064 49.8908C71.3944 50.301 71.3515 50.8561 71.0777 51.2952C71.1059 51.3313 71.1352 51.3663 71.1633 51.4025C71.6782 52.0659 72.1269 52.7782 72.5031 53.5293C72.4116 52.6879 72.5208 51.8367 72.8217 51.0457C73.1266 50.3086 73.6982 49.6878 74.2015 49.0506C74.3346 48.8794 74.5154 48.7516 74.7209 48.6833C74.9265 48.6151 75.1477 48.6095 75.3565 48.6671C75.5652 48.7248 75.7523 48.8432 75.8939 49.0074C76.0356 49.1716 76.1255 49.3741 76.1522 49.5895C76.1533 49.5989 76.1543 49.6083 76.1553 49.6177C76.0805 49.6599 76.0073 49.7048 75.9357 49.7522C75.8458 49.8124 75.7761 49.8985 75.7358 49.9991C75.6954 50.0997 75.6864 50.2101 75.7098 50.316C75.7332 50.4218 75.7879 50.5181 75.8669 50.5922C75.9458 50.6663 76.0453 50.7148 76.1522 50.7313L76.1631 50.733C76.1365 51.003 76.0894 51.2706 76.0223 51.5334C76.668 54.0356 75.274 54.9469 73.2836 54.9879C73.2396 55.0104 73.1968 55.033 73.1529 55.0545C73.5308 56.1277 73.7679 57.2457 73.8581 58.3802C73.9092 59.0496 73.9062 59.7219 73.8491 60.3908L73.8525 60.3671C73.9967 59.6233 74.3927 58.9522 74.9735 58.4671C75.8361 57.7571 77.0548 57.4956 77.9855 56.9248C78.0844 56.8612 78.1994 56.8272 78.3169 56.8269C78.4345 56.8266 78.5496 56.86 78.6488 56.9232C78.748 56.9863 78.8272 57.0766 78.8769 57.1833C78.9266 57.29 78.9448 57.4088 78.9293 57.5256L78.9255 57.5505C78.7868 57.6071 78.6517 57.6723 78.5211 57.7458C78.4463 57.788 78.3731 57.8329 78.3015 57.8803C78.2116 57.9406 78.1419 58.0266 78.1016 58.1272C78.0613 58.2278 78.0522 58.3382 78.0756 58.4441C78.099 58.5499 78.1538 58.6462 78.2327 58.7203C78.3117 58.7944 78.4111 58.8429 78.518 58.8594L78.529 58.8611C78.5369 58.8623 78.5436 58.8634 78.5515 58.8645C78.3145 59.4317 77.9818 59.9537 77.568 60.4077C77.1643 62.592 75.4302 62.7993 73.5754 62.1632H73.5742C73.3707 63.0494 73.0759 63.912 72.6944 64.7371H69.5512C69.5399 64.7021 69.5298 64.666 69.5197 64.631C69.8106 64.6493 70.1027 64.6319 70.3894 64.579C70.1562 64.2923 69.923 64.0033 69.6898 63.7165C69.6846 63.7112 69.6797 63.7055 69.6751 63.6996C69.5568 63.5529 69.4374 63.4072 69.3191 63.2605L69.319 63.2603C69.3127 62.8104 69.3644 62.3616 69.4724 61.9249Z" fill="#F2F2F2"/>
<path d="M23.5427 81.7622C23.5426 81.7895 23.548 81.8166 23.5584 81.8419C23.5688 81.8672 23.5841 81.8901 23.6033 81.9095C23.6226 81.9288 23.6455 81.9441 23.6708 81.9545C23.696 81.9649 23.723 81.9703 23.7503 81.9702H109.792C109.847 81.9702 109.9 81.9483 109.939 81.9093C109.978 81.8703 110 81.8174 110 81.7622C110 81.707 109.978 81.6541 109.939 81.6151C109.9 81.5761 109.847 81.5542 109.792 81.5542H23.7503C23.723 81.5541 23.696 81.5594 23.6708 81.5699C23.6456 81.5803 23.6226 81.5956 23.6033 81.6149C23.5841 81.6343 23.5688 81.6572 23.5584 81.6825C23.548 81.7078 23.5426 81.7349 23.5427 81.7622Z" fill="#CCCCCC"/>
<path d="M62.5054 37.1309C62.748 37.3875 62.3802 37.7208 62.0971 37.5009C59.7363 35.6668 57.3755 33.8339 55.0147 32.0022C55.0119 31.9993 55.0087 31.997 55.0051 31.9952C54.8422 31.8845 54.6871 31.7626 54.541 31.6305C52.3438 31.3984 49.9291 30.6306 47.6414 30.2973C45.6215 30.5695 43.6073 30.8941 41.5815 31.1349C39.8146 31.3574 38.036 31.4727 36.2552 31.4804C34.8052 31.4735 33.2435 31.4647 31.9283 30.8435C30.5611 30.1978 29.8005 28.9274 29.45 27.6221C29.2772 26.9559 29.1644 26.2755 29.113 25.5891V21.3329C29.2998 19.4797 29.8698 17.6439 31.4161 16.3508C33.7365 14.4103 37.2103 14.3597 40.1796 14.3056C43.717 14.2379 47.2554 14.3783 50.7764 14.7261C53.6456 15.0123 56.663 15.2898 59.3165 16.3979C60.4546 16.8743 61.5272 17.5357 62.3109 18.4309C63.1928 19.4451 63.703 20.7305 63.757 22.0746C63.8976 24.8824 62.488 27.4511 61.7159 30.1018C61.0458 32.3966 60.6683 35.1782 62.5054 37.1309Z" fill="#EDA268"/>
<path d="M44.9913 19.0142H37.1037C37.0679 19.0142 37.0324 19.0071 36.9993 18.9934C36.9662 18.9796 36.9361 18.9595 36.9107 18.9341C36.8854 18.9087 36.8653 18.8786 36.8516 18.8454C36.8379 18.8122 36.8308 18.7767 36.8308 18.7407C36.8308 18.7048 36.8379 18.6693 36.8516 18.6361C36.8653 18.6029 36.8854 18.5728 36.9107 18.5474C36.9361 18.522 36.9662 18.5018 36.9993 18.4881C37.0324 18.4744 37.0679 18.4673 37.1037 18.4673H44.9913C45.0637 18.4673 45.1331 18.4961 45.1843 18.5474C45.2355 18.5987 45.2642 18.6682 45.2642 18.7407C45.2642 18.8133 45.2355 18.8828 45.1843 18.9341C45.1331 18.9854 45.0637 19.0142 44.9913 19.0142Z" fill="#026498"/>
<path d="M44.9913 24.8457H37.1037C37.0313 24.8457 36.9619 24.8169 36.9107 24.7656C36.8596 24.7144 36.8308 24.6448 36.8308 24.5723C36.8308 24.4998 36.8596 24.4302 36.9107 24.3789C36.9619 24.3276 37.0313 24.2988 37.1037 24.2988H44.9913C45.0637 24.2988 45.1331 24.3276 45.1843 24.3789C45.2355 24.4302 45.2642 24.4998 45.2642 24.5723C45.2642 24.6448 45.2355 24.7144 45.1843 24.7656C45.1331 24.8169 45.0637 24.8457 44.9913 24.8457Z" fill="#026498"/>
<path d="M51.3973 21.9317H37.1037C37.0313 21.9317 36.9619 21.9029 36.9107 21.8516C36.8596 21.8003 36.8308 21.7307 36.8308 21.6582C36.8308 21.5857 36.8596 21.5161 36.9107 21.4649C36.9619 21.4136 37.0313 21.3848 37.1037 21.3848H51.3973C51.4697 21.3848 51.5391 21.4136 51.5903 21.4649C51.6414 21.5161 51.6702 21.5857 51.6702 21.6582C51.6702 21.7307 51.6414 21.8003 51.5903 21.8516C51.5391 21.9029 51.4697 21.9317 51.3973 21.9317Z" fill="#026498"/>
<path d="M64.2934 19.2137C65.0245 20.3827 65.438 21.7281 65.3114 23.1149C65.2022 24.3115 64.7123 25.4369 64.1768 26.4974C63.6218 27.5964 63.0005 28.6636 62.5466 29.8111C62.0484 31.0619 61.8643 32.4161 62.0105 33.7548C62.1002 34.6239 62.2752 35.4813 62.4401 36.3384L62.9434 38.955L63.3807 38.7L56.146 32.4325C55.8924 32.2128 55.5207 32.5822 55.776 32.8033L63.0107 39.0707C63.0521 39.1097 63.1051 39.1343 63.1616 39.1408C63.218 39.1472 63.2751 39.1352 63.3243 39.1066C63.3734 39.0779 63.412 39.0341 63.4343 38.9817C63.4566 38.9293 63.4614 38.871 63.448 38.8157C63.1523 37.2783 62.8029 35.7402 62.5863 34.1893C62.4618 33.4072 62.4443 32.6118 62.5344 31.825C62.6229 31.2253 62.7803 30.6378 63.0032 30.0741C63.8708 27.8021 65.4961 25.8145 65.8094 23.3442C66.0057 21.7965 65.5642 20.2585 64.7452 18.9491C64.5668 18.6638 64.1139 18.9267 64.2934 19.2137Z" fill="#3F3D56"/>
<path d="M56.6032 30.1389L45.9036 31.4073L40.5538 32.0415C38.924 32.2347 37.2255 32.506 35.597 32.1641C32.8553 31.5886 31.153 29.0991 30.6174 26.4756C30.2859 24.8515 30.4032 23.1523 30.6821 21.5299C30.8308 20.6649 31.0271 19.809 31.2391 18.9576C31.4281 18.1989 31.569 17.3819 31.8956 16.6677C32.1562 16.087 32.5439 15.5725 33.03 15.1625C33.5161 14.7525 34.0881 14.4574 34.7036 14.2992C35.088 14.2202 35.4775 14.1685 35.8692 14.1444C36.3093 14.1001 36.7497 14.0594 37.1904 14.0222C38.0718 13.9478 38.9542 13.8875 39.8376 13.8414C40.2793 13.8184 40.7211 13.7989 41.1631 13.7829C41.4988 13.7706 41.5005 13.2461 41.1631 13.2585C39.3239 13.326 37.4883 13.4537 35.6563 13.6418C34.91 13.7188 34.2199 13.8302 33.5462 14.1805C32.964 14.4856 32.4527 14.9105 32.0458 15.4273C31.6288 15.9606 31.3229 16.5723 31.1463 17.2262C30.9055 18.095 30.6869 18.9725 30.4876 19.8518C30.0857 21.6241 29.7968 23.451 29.931 25.2731C30.1295 27.9681 31.4171 30.8434 33.9159 32.1264C35.3916 32.8841 37.0754 32.918 38.6924 32.7733C40.4956 32.612 42.2938 32.3596 44.0916 32.1465L55.2226 30.8269L56.6032 30.6633C56.9336 30.6241 56.9375 30.0993 56.6032 30.1389Z" fill="#3F3D56"/>
</g>
<defs>
<clipPath id="clip0_677_10965">
<rect width="110" height="82" fill="white"/>
</clipPath>
</defs>
</svg>
