<svg width="95" height="82" viewBox="0 0 95 82" fill="none" xmlns="http://www.w3.org/2000/svg">
<g clip-path="url(#clip0_677_11155)">
<path d="M65.0661 25.3463C65.0628 27.1991 64.5102 29.0092 63.4781 30.5479C62.446 32.0866 60.9809 33.2847 59.2679 33.9907C57.5549 34.6967 55.671 34.8789 53.8545 34.5142C52.038 34.1495 50.3704 33.2544 49.0626 31.9419C47.7548 30.6295 46.8656 28.9588 46.5073 27.141C46.1491 25.3231 46.338 23.4399 47.05 21.7295C47.7621 20.019 48.9654 18.5581 50.5077 17.5315C52.0501 16.5048 53.8622 15.9586 55.715 15.9619C56.946 15.9609 58.1652 16.2032 59.3024 16.6749C60.4395 17.1465 61.4723 17.8383 62.3412 18.7103C63.2102 19.5824 63.8983 20.6176 64.3659 21.7564C64.8335 22.8952 65.0715 24.1152 65.0661 25.3463Z" fill="#F2F2F2"/>
<path d="M80.6569 30.8069L81.974 28.2919C80.7929 26.8656 76.9176 25.1357 76.9176 25.1357L71.6727 20.3618C71.6168 20.1488 71.5058 19.9542 71.3509 19.7978C71.196 19.6413 71.0026 19.5284 70.7901 19.4705C70.5777 19.4125 70.3537 19.4115 70.1408 19.4676C69.9279 19.5238 69.7335 19.635 69.5772 19.7901C69.4209 19.9452 69.3083 20.1388 69.2506 20.3513C69.1929 20.5637 69.1922 20.7877 69.2486 21.0006C69.3049 21.2134 69.4164 21.4077 69.5717 21.5638C69.727 21.7199 69.9206 21.8323 70.1332 21.8897L75.7995 28.6856L80.6569 30.8069Z" fill="#9E616A"/>
<path d="M80.0188 30.6336L81.8786 31.2258C83.2311 31.6564 84.6885 31.624 86.0205 31.1336C86.4234 30.9836 86.7763 30.7238 87.0394 30.3838C87.3025 30.0437 87.4652 29.6369 87.5091 29.2092C87.5648 28.629 87.3981 28.0494 87.0428 27.5874C86.6874 27.1255 86.1699 26.8157 85.5949 26.7207C83.8507 26.4341 81.6034 26.2927 80.8016 27.2468L80.7935 27.2565L80.0188 30.6336Z" fill="#3F3D56"/>
<path d="M66.6412 38.3327C71.8149 38.3327 76.009 34.1386 76.009 28.9649C76.009 23.7913 71.8149 19.5972 66.6412 19.5972C61.4675 19.5972 57.2734 23.7913 57.2734 28.9649C57.2734 34.1386 61.4675 38.3327 66.6412 38.3327Z" fill="white"/>
<path d="M62.8181 25.301C62.6895 25.9918 62.4787 26.6646 62.1901 27.3053C60.5376 30.8011 65.2436 29.6616 66.9254 29.6616C68.7641 29.6616 70.5234 30.6285 70.2547 26.3323C70.1399 24.4971 68.7641 23.0029 66.9254 23.0029C65.3548 23.0029 63.1465 23.701 62.8181 25.301Z" fill="#2F2E41"/>
<path d="M66.6498 29.661C68.144 29.661 69.3553 28.4497 69.3553 26.9555C69.3553 25.4613 68.144 24.25 66.6498 24.25C65.1556 24.25 63.9443 25.4613 63.9443 26.9555C63.9443 28.4497 65.1556 29.661 66.6498 29.661Z" fill="#FFB6B6"/>
<path d="M64.8126 24.1976C65.2867 23.9086 65.8297 23.7522 66.3849 23.7449C66.9401 23.7376 67.487 23.8795 67.9686 24.156C68.4501 24.4324 68.8485 24.8331 69.1222 25.3162C69.3959 25.7993 69.5347 26.3471 69.5242 26.9022C68.1456 27.2483 66.6974 27.5132 65.2272 26.985L64.88 26.1353L64.6753 26.9856C64.2276 27.1686 63.7787 27.3235 63.3299 26.9839C63.3115 26.4303 63.4388 25.8816 63.699 25.3927C63.9592 24.9037 64.3432 24.4916 64.8126 24.1976Z" fill="#2F2E41"/>
<path d="M73.9252 35.194C72.3023 37.0407 70.0182 38.175 67.5662 38.3522C65.1141 38.5295 62.6907 37.7353 60.8191 36.1412L61.6226 33.8992C61.8042 33.501 62.0907 33.1597 62.4515 32.9119C62.8123 32.6642 63.2337 32.5193 63.6705 32.4928L64.1817 32.4615L65.4006 31.4102C65.4006 31.4102 68.6848 31.293 68.636 31.2368L70.6254 32.4334L70.6237 32.4251L71.4057 32.473C71.8426 32.4994 72.2641 32.6442 72.6249 32.892C72.9857 33.1397 73.2722 33.4811 73.4537 33.8793L73.9252 35.194Z" fill="#EDA268"/>
<path d="M65.8195 73.7949L65.5867 70.5574C64.062 69.7952 62.3742 69.4167 60.6699 69.4548C63.0676 71.3081 62.8755 75.0122 64.536 77.5472C65.06 78.3338 65.7542 78.9925 66.5674 79.4744C67.3805 79.9563 68.2916 80.249 69.2333 80.3309L71.2287 81.4789C71.4569 79.9702 71.3554 78.43 70.9311 76.9644C70.5068 75.4987 69.7698 74.1425 68.7709 72.9891C68.2041 72.3476 67.5587 71.78 66.8501 71.2998C66.414 72.552 65.8195 73.7949 65.8195 73.7949Z" fill="#F2F2F2"/>
<path d="M5.14959 16.4106L4.91682 13.1731C3.39204 12.4109 1.70425 12.0324 0 12.0705C2.39765 13.9238 2.2056 17.6279 3.8661 20.1629C4.39005 20.9496 5.08431 21.6082 5.89744 22.0901C6.71056 22.572 7.6217 22.8647 8.56333 22.9466L10.5588 24.0946C10.787 22.5859 10.6855 21.0457 10.2612 19.5801C9.83689 18.1144 9.09988 16.7582 8.10096 15.6048C7.53415 14.9633 6.88882 14.3958 6.18019 13.9155C5.74403 15.1678 5.14959 16.4106 5.14959 16.4106Z" fill="#F2F2F2"/>
<path d="M74.5485 80.3845L72.9919 80.3844L72.2515 74.3809H74.5487L74.5485 80.3845Z" fill="#9E616A"/>
<path d="M74.9455 81.8932L69.9268 81.893V81.8296C69.9268 81.3115 70.1326 80.8147 70.499 80.4483C70.8653 80.082 71.3621 79.8762 71.8802 79.8762H71.8803L72.7971 79.1807L74.5075 79.8763L74.9456 79.8763L74.9455 81.8932Z" fill="#2F2E41"/>
<path d="M88.2664 80.3845L86.71 80.3844L85.9695 74.3809H88.2667L88.2664 80.3845Z" fill="#9E616A"/>
<path d="M88.6633 81.8932L83.6445 81.893V81.8296C83.6446 81.3115 83.8504 80.8146 84.2167 80.4483C84.5831 80.082 85.0799 79.8762 85.598 79.8761H85.5981L86.5148 79.1807L88.2253 79.8763L88.6634 79.8763L88.6633 81.8932Z" fill="#2F2E41"/>
<path d="M85.8992 48.2526L87.2083 60.6894C87.2083 60.6894 88.9511 73.1422 88.6238 74.8604C88.2965 76.5787 88.7056 76.8241 88.7056 76.8241L85.7193 76.6115C85.7193 76.6115 85.8011 75.5478 85.3102 75.0569C84.8193 74.5659 85.0647 73.0931 85.0647 73.0931L79.2717 52.8346L75.7534 63.4713C75.7534 63.4713 75.1806 75.1717 75.0988 75.3354C75.017 75.499 74.7715 77.7082 74.7715 77.7082H71.7441C71.7441 77.7082 72.1532 76.399 71.5805 75.9899C71.0077 75.5808 70.5168 75.9081 71.0077 75.1717C71.4987 74.4353 71.6623 73.5353 71.4987 73.1262C71.335 72.7171 71.335 71.0807 71.335 71.0807C71.335 71.0807 71.5805 48.989 72.9715 48.2526C74.3624 47.5162 85.8992 48.2526 85.8992 48.2526Z" fill="#2F2E41"/>
<path d="M79.6994 23.0712C81.4777 23.0712 82.9193 21.6296 82.9193 19.8513C82.9193 18.073 81.4777 16.6313 79.6994 16.6313C77.9211 16.6313 76.4795 18.073 76.4795 19.8513C76.4795 21.6296 77.9211 23.0712 79.6994 23.0712Z" fill="#9E616A"/>
<path d="M87.012 49.6082C80.7762 50.896 72.5125 48.682 72.5125 48.682L74.7169 39.1262L73.9332 29.126C73.8375 27.9031 74.534 26.7567 75.6176 26.3505L77.1138 25.7901L78.3505 24.0195L81.8832 24.1354L83.2954 25.9943L84.4098 26.5855L86.8259 27.8669L86.8365 27.8722V27.8776L86.0783 35.2321L85.621 39.6665C85.621 39.6665 87.0098 44.6538 86.7248 45.3153C86.4399 45.9756 86.6876 45.6566 86.7567 46.0097C86.8259 46.3627 87.0375 46.385 87.0694 47.0805C87.1024 47.7749 87.012 49.6082 87.012 49.6082Z" fill="#3F3D56"/>
<path d="M94.5502 81.9999H46.3815C46.3529 81.9999 46.3256 81.9884 46.3054 81.9682C46.2852 81.948 46.2739 81.9206 46.2739 81.8921C46.2739 81.8635 46.2852 81.8361 46.3054 81.8159C46.3256 81.7957 46.3529 81.7843 46.3815 81.7842H94.5502C94.5788 81.7842 94.6062 81.7955 94.6264 81.8158C94.6467 81.836 94.658 81.8635 94.658 81.8921C94.658 81.9207 94.6467 81.9481 94.6264 81.9683C94.6062 81.9886 94.5788 81.9999 94.5502 81.9999Z" fill="#CCCCCC"/>
<path d="M79.5425 22.9167C80.1073 22.9109 80.6705 22.8569 81.2261 22.7553C81.776 22.6285 82.9895 21.6902 83.3202 21.1359C83.566 20.724 83.7134 20.087 83.7939 19.6251C83.9025 19.0139 83.8816 18.3866 83.7324 17.784C83.5833 17.1813 83.3092 16.6167 82.9279 16.1268C82.781 15.9215 82.5813 15.7598 82.3499 15.6587C82.3295 15.6513 82.3084 15.6448 82.2872 15.6393C81.9519 15.5603 81.6478 15.3828 81.4141 15.1297C81.3687 15.0785 81.3197 15.0306 81.2674 14.9864C81.0052 14.7765 80.6971 14.6315 80.3681 14.5635C79.8367 14.4359 79.0765 14.5958 78.1087 15.0393C77.6225 15.2621 77.0829 15.1999 76.667 15.1209C76.6436 15.117 76.6197 15.1193 76.5976 15.1275C76.5754 15.1357 76.5558 15.1496 76.5407 15.1678C76.3689 15.3376 76.1393 15.436 75.898 15.4434C75.7503 15.4537 75.6005 15.6624 75.4199 15.9342C75.3789 15.9959 75.3311 16.0679 75.2964 16.1119L75.2895 16.0293L75.2082 16.1237C75.0805 16.272 74.9924 16.4502 74.9521 16.6417C74.9118 16.8332 74.9206 17.0318 74.9777 17.219C75.0348 17.4062 75.1384 17.5758 75.2787 17.7122C75.4191 17.8486 75.5917 17.9473 75.7804 17.999C75.9302 18.0347 76.0832 18.0551 76.237 18.0597C76.3303 18.0657 76.4268 18.0719 76.5195 18.0855C76.8171 18.1385 77.096 18.2678 77.3288 18.4607C77.5616 18.6536 77.7403 18.9036 77.8477 19.1863C77.873 19.2516 77.913 19.3102 77.9646 19.3576C78.0162 19.405 78.078 19.4399 78.1452 19.4596C78.2125 19.4794 78.2833 19.4834 78.3524 19.4714C78.4214 19.4594 78.4867 19.4317 78.5433 19.3904C78.6375 19.3131 78.749 19.2597 78.8683 19.2348C78.9875 19.2098 79.1111 19.2141 79.2283 19.2473C79.3303 19.3006 79.4108 19.3873 79.4564 19.4929C79.5116 19.6105 79.6005 19.709 79.7118 19.7758C80.0915 19.9593 80.1394 20.8144 80.0233 21.5313C79.9113 22.2222 79.6677 22.7263 79.431 22.757C79.2487 22.7807 79.2281 22.7942 79.2157 22.8268L79.2046 22.8561L79.2259 22.8826C79.3278 22.9166 79.4358 22.9282 79.5425 22.9167Z" fill="#2F2E41"/>
<path d="M66.6414 38.4502C64.7654 38.4502 62.9315 37.8939 61.3717 36.8517C59.8119 35.8094 58.5962 34.3281 57.8783 32.5949C57.1604 30.8617 56.9725 28.9546 57.3385 27.1146C57.7045 25.2747 58.6079 23.5846 59.9344 22.2581C61.2609 20.9316 62.951 20.0282 64.7909 19.6622C66.6308 19.2963 68.538 19.4841 70.2712 20.202C72.0043 20.9199 73.4857 22.1356 74.5279 23.6954C75.5702 25.2553 76.1265 27.0891 76.1265 28.9651C76.1236 31.4798 75.1234 33.8907 73.3452 35.6689C71.567 37.4471 69.1561 38.4473 66.6414 38.4502ZM66.6414 19.7147C64.8118 19.7147 63.0233 20.2572 61.5021 21.2737C59.9809 22.2901 58.7952 23.7348 58.0951 25.4251C57.395 27.1154 57.2118 28.9753 57.5687 30.7698C57.9256 32.5642 58.8066 34.2124 60.1003 35.5061C61.394 36.7998 63.0423 37.6808 64.8367 38.0378C66.6311 38.3947 68.491 38.2115 70.1813 37.5114C71.8716 36.8112 73.3163 35.6256 74.3328 34.1043C75.3492 32.5831 75.8918 30.7946 75.8918 28.9651C75.889 26.5126 74.9135 24.1613 73.1793 22.4271C71.4451 20.693 69.0939 19.7175 66.6414 19.7147Z" fill="#3F3D56"/>
<path d="M33.9007 18.8527C39.0744 18.8527 43.2685 14.6586 43.2685 9.48496C43.2685 4.31128 39.0744 0.117188 33.9007 0.117188C28.7271 0.117188 24.533 4.31128 24.533 9.48496C24.533 14.6586 28.7271 18.8527 33.9007 18.8527Z" fill="white"/>
<path d="M34.3342 10.4409C36.0212 10.4409 37.3889 9.07325 37.3889 7.38621C37.3889 5.69916 36.0212 4.33154 34.3342 4.33154C32.6472 4.33154 31.2795 5.69916 31.2795 7.38621C31.2795 9.07325 32.6472 10.4409 34.3342 10.4409Z" fill="#FFB8B8"/>
<path d="M37.0239 5.36797C37.0239 5.36797 37.8192 3.84754 36.0695 3.70932C36.0695 3.70932 34.5778 2.35619 33.0574 3.46195C33.0574 3.46195 32.2281 3.46195 31.7746 4.40043C31.7746 4.40043 31.1223 4.15305 30.979 4.81509C30.979 4.81509 30.5017 6.1973 30.979 7.44128C31.4562 8.68527 31.6148 8.82349 31.6148 8.82349C31.6148 8.82349 31.2799 7.27977 33.1889 7.14155C35.0979 7.00333 36.8492 5.80744 37.0083 7.32786C37.1673 8.84828 37.3422 8.16145 37.3422 8.16145C37.3422 8.16145 38.8533 5.98997 37.0239 5.36797Z" fill="#2F2E41"/>
<path d="M40.9457 15.714C39.3228 17.5607 37.0388 18.6951 34.5867 18.8723C32.1346 19.0495 29.7112 18.2553 27.8396 16.6612L28.6431 14.4192C28.8247 14.021 29.1112 13.6797 29.472 13.4319C29.8328 13.1842 30.2542 13.0393 30.6911 13.0129L31.2022 12.9815L32.4211 11.9303C32.4211 11.9303 35.7053 11.813 35.6565 11.7568L37.6459 12.9534L37.6442 12.9452L38.4262 12.993C38.8631 13.0194 39.2846 13.1642 39.6454 13.412C40.0062 13.6597 40.2927 14.0011 40.4742 14.3994L40.9457 15.714Z" fill="#EDA268"/>
<path d="M33.9006 18.9702C32.0247 18.9702 30.1908 18.4139 28.631 17.3717C27.0712 16.3295 25.8554 14.8481 25.1375 13.1149C24.4196 11.3817 24.2318 9.47459 24.5978 7.63466C24.9638 5.79473 25.8671 4.10464 27.1937 2.77813C28.5202 1.45161 30.2103 0.548243 32.0502 0.182258C33.8901 -0.183727 35.7973 0.00410913 37.5304 0.722014C39.2636 1.43992 40.745 2.65565 41.7872 4.21547C42.8294 5.77528 43.3857 7.60913 43.3857 9.48511C43.3829 11.9998 42.3826 14.4108 40.6045 16.1889C38.8263 17.9671 36.4154 18.9674 33.9006 18.9702ZM33.9006 0.234704C32.0711 0.234703 30.2826 0.77723 28.7614 1.79368C27.2402 2.81012 26.0545 4.25484 25.3544 5.94513C24.6542 7.63542 24.471 9.49537 24.828 11.2898C25.1849 13.0842 26.0659 14.7324 27.3596 16.0261C28.6533 17.3198 30.3016 18.2008 32.096 18.5578C33.8904 18.9147 35.7503 18.7315 37.4406 18.0314C39.1309 17.3312 40.5756 16.1456 41.5921 14.6244C42.6085 13.1031 43.151 11.3147 43.151 9.48511C43.1483 7.0326 42.1728 4.68134 40.4386 2.94716C38.7044 1.21297 36.3531 0.237486 33.9006 0.234704Z" fill="#3F3D56"/>
<path d="M12.0357 33.6389C17.2094 33.6389 21.4035 29.4448 21.4035 24.2711C21.4035 19.0974 17.2094 14.9033 12.0357 14.9033C6.86206 14.9033 2.66797 19.0974 2.66797 24.2711C2.66797 29.4448 6.86206 33.6389 12.0357 33.6389Z" fill="white"/>
<path d="M7.69386 21.224C8.08121 19.9895 8.96207 18.8573 10.1803 18.4399C11.3985 18.0226 13.1824 18.6583 14.0983 19.5711C15.7736 21.2407 16.1824 26.9766 15.0314 28.7891C14.8025 28.777 14.0125 28.7681 13.7808 28.7594L13.453 27.6669V28.7486C13.0838 28.7372 12.7118 28.7293 12.3369 28.725C11.0798 28.7094 9.87777 28.207 8.98342 27.3235C8.08907 26.44 7.5721 25.2442 7.54118 23.9874C7.51119 22.7851 7.54121 21.7104 7.69386 21.224Z" fill="#2F2E41"/>
<path d="M11.8968 25.3151C13.3713 25.3151 14.5665 24.1198 14.5665 22.6453C14.5665 21.1709 13.3713 19.9756 11.8968 19.9756C10.4223 19.9756 9.22705 21.1709 9.22705 22.6453C9.22705 24.1198 10.4223 25.3151 11.8968 25.3151Z" fill="#9E616A"/>
<path d="M9.59277 20.3009L12.6667 18.7617C13.2952 19.0449 13.8364 19.4911 14.2343 20.0539C14.6322 20.6168 14.8723 21.2759 14.9297 21.9628L15.0063 22.8806L13.7191 22.5529L13.578 21.3794L13.3595 22.4614L12.7654 22.3102L12.7711 20.4883L12.1766 22.3089L10.055 21.8215L9.59277 20.3009Z" fill="#2F2E41"/>
<path d="M18.9872 30.4704C17.3643 32.317 15.0803 33.4514 12.6282 33.6286C10.1761 33.8058 7.7527 33.0117 5.8811 31.4176L6.6846 29.1755C6.86618 28.7773 7.15272 28.436 7.5135 28.1883C7.87429 27.9405 8.2957 27.7957 8.73256 27.7692L9.24372 27.7378L10.4626 26.6866C10.4626 26.6866 13.7468 26.5693 13.698 26.5132L15.6874 27.7098L15.6857 27.7015L16.4677 27.7494C16.9046 27.7757 17.3261 27.9206 17.6869 28.1683C18.0477 28.4161 18.3342 28.7574 18.5157 29.1557L18.9872 30.4704Z" fill="#EDA268"/>
<path d="M12.0356 33.7563C10.1597 33.7563 8.32582 33.2001 6.766 32.1578C5.20619 31.1156 3.99046 29.6342 3.27255 27.901C2.55465 26.1679 2.36681 24.2607 2.7328 22.4208C3.09878 20.5809 4.00215 18.8908 5.32866 17.5643C6.65518 16.2377 8.34526 15.3344 10.1852 14.9684C12.0251 14.6024 13.9323 14.7902 15.6654 15.5081C17.3986 16.2261 18.88 17.4418 19.9222 19.0016C20.9645 20.5614 21.5208 22.3953 21.5208 24.2712C21.5179 26.786 20.5177 29.1969 18.7395 30.9751C16.9613 32.7533 14.5504 33.7535 12.0356 33.7563ZM12.0356 15.0208C10.2061 15.0208 8.41762 15.5634 6.8964 16.5798C5.37518 17.5963 4.18953 19.041 3.48939 20.7313C2.78924 22.4216 2.60606 24.2815 2.96298 26.0759C3.31991 27.8703 4.20093 29.5186 5.49462 30.8123C6.78831 32.106 8.43658 32.987 10.231 33.3439C12.0254 33.7008 13.8853 33.5176 15.5756 32.8175C17.2659 32.1174 18.7106 30.9317 19.7271 29.4105C20.7435 27.8893 21.2861 26.1008 21.2861 24.2712C21.2833 21.8187 20.3078 19.4675 18.5736 17.7333C16.8394 15.9991 14.4882 15.0236 12.0356 15.0208Z" fill="#3F3D56"/>
<path d="M75.2931 33.8252L73.8748 31.3657C72.0377 31.5991 68.5011 33.9448 68.5011 33.9448L61.6603 35.8166C61.4505 35.7496 61.2268 35.7392 61.0117 35.7862C60.7966 35.8332 60.5976 35.936 60.4349 36.0844C60.2722 36.2327 60.1514 36.4213 60.0847 36.6312C60.0181 36.841 60.0078 37.0647 60.0551 37.2798C60.1024 37.4949 60.2055 37.6937 60.354 37.8562C60.5025 38.0188 60.6913 38.1393 60.9012 38.2058C61.1111 38.2722 61.3349 38.2821 61.5499 38.2346C61.7649 38.1871 61.9636 38.0837 62.1259 37.935L70.8998 36.7906L75.2931 33.8252Z" fill="#9E616A"/>
<path d="M74.8048 34.2706L77.98 31.6111L78.4419 29.4704C78.5311 29.0498 78.5008 28.6127 78.3546 28.2084C78.2083 27.8041 77.9519 27.4488 77.6143 27.1826C77.1543 26.8248 76.5755 26.655 75.9951 26.7076C75.4146 26.7603 74.8758 27.0313 74.4876 27.466C73.3113 28.7853 71.9881 30.6073 72.3643 31.7954L72.3681 31.8074L74.8048 34.2706Z" fill="#3F3D56"/>
<path d="M26.1393 43.5099H14.2089C13.8892 43.5096 13.5826 43.3824 13.3565 43.1563C13.1305 42.9302 13.0033 42.6237 13.0029 42.304V34.956C13.0033 34.6362 13.1305 34.3297 13.3565 34.1036C13.5826 33.8775 13.8892 33.7504 14.2089 33.75H26.1393C26.459 33.7504 26.7655 33.8775 26.9916 34.1036C27.2177 34.3297 27.3449 34.6362 27.3453 34.956V42.304C27.3449 42.6237 27.2177 42.9302 26.9916 43.1563C26.7655 43.3824 26.459 43.5096 26.1393 43.5099Z" fill="#E6E6E6"/>
<path d="M21.3991 42.5633H15.0475C14.748 42.563 14.4609 42.4439 14.2492 42.2321C14.0374 42.0204 13.9183 41.7333 13.918 41.4339V35.8257C13.9183 35.5263 14.0374 35.2392 14.2492 35.0275C14.4609 34.8157 14.748 34.6966 15.0475 34.6963H25.3006C25.6001 34.6966 25.8871 34.8157 26.0989 35.0275C26.3106 35.2392 26.4297 35.5263 26.43 35.8257V37.5324C26.4285 38.8662 25.898 40.145 24.9548 41.0881C24.0117 42.0313 22.7329 42.5618 21.3991 42.5633Z" fill="white"/>
<path d="M24.2779 37.7673H16.0704C15.9994 37.7673 15.9313 37.7391 15.8811 37.6889C15.8309 37.6387 15.8027 37.5706 15.8027 37.4996C15.8027 37.4286 15.8309 37.3605 15.8811 37.3103C15.9313 37.2601 15.9994 37.2319 16.0704 37.2319H24.2779C24.3489 37.2319 24.417 37.2601 24.4672 37.3103C24.5174 37.3605 24.5456 37.4286 24.5456 37.4996C24.5456 37.5706 24.5174 37.6387 24.4672 37.6889C24.417 37.7391 24.3489 37.7673 24.2779 37.7673Z" fill="#EDA268"/>
<path d="M17.354 38.8249H16.0702C15.9992 38.8249 15.9311 38.7967 15.8809 38.7465C15.8307 38.6963 15.8025 38.6282 15.8025 38.5572C15.8025 38.4862 15.8307 38.4182 15.8809 38.368C15.9311 38.3178 15.9992 38.2896 16.0702 38.2896H17.354C17.425 38.2896 17.4931 38.3178 17.5433 38.368C17.5935 38.4182 17.6217 38.4862 17.6217 38.5572C17.6217 38.6282 17.5935 38.6963 17.5433 38.7465C17.4931 38.7967 17.425 38.8249 17.354 38.8249Z" fill="#EDA268"/>
<path d="M19.6281 39.8825H16.0704C15.9995 39.8824 15.9315 39.8541 15.8814 39.8039C15.8313 39.7538 15.8032 39.6858 15.8032 39.6149C15.8032 39.544 15.8313 39.476 15.8814 39.4258C15.9315 39.3756 15.9995 39.3473 16.0704 39.3472H19.6281C19.699 39.3473 19.7669 39.3756 19.817 39.4258C19.8671 39.476 19.8952 39.544 19.8952 39.6149C19.8952 39.6858 19.8671 39.7538 19.817 39.8039C19.7669 39.8541 19.699 39.8824 19.6281 39.8825Z" fill="#EDA268"/>
<path d="M12.5865 36.1271C13.9803 36.1271 15.1102 34.9972 15.1102 33.6033C15.1102 32.2095 13.9803 31.0796 12.5865 31.0796C11.1927 31.0796 10.0627 32.2095 10.0627 33.6033C10.0627 34.9972 11.1927 36.1271 12.5865 36.1271Z" fill="#3F3D56"/>
<path d="M57.1195 10.1823H45.1891C44.8694 10.1819 44.5629 10.0548 44.3368 9.82869C44.1107 9.6026 43.9835 9.29607 43.9832 8.97633V1.62834C43.9835 1.30861 44.1107 1.00207 44.3368 0.775987C44.5629 0.549901 44.8694 0.422726 45.1891 0.422363H57.1195C57.4392 0.422725 57.7458 0.549899 57.9718 0.775986C58.1979 1.00207 58.3251 1.30861 58.3255 1.62834V8.97633C58.3251 9.29606 58.1979 9.6026 57.9718 9.82869C57.7458 10.0548 57.4392 10.1819 57.1195 10.1823Z" fill="#E6E6E6"/>
<path d="M52.3795 9.23615H46.0279C45.7285 9.23582 45.4414 9.11673 45.2296 8.90499C45.0179 8.69325 44.8988 8.40617 44.8984 8.10672V2.49857C44.8988 2.19913 45.0179 1.91204 45.2296 1.70031C45.4414 1.48857 45.7285 1.36947 46.0279 1.36914H56.2811C56.5805 1.36947 56.8676 1.48857 57.0793 1.70031C57.2911 1.91205 57.4102 2.19913 57.4105 2.49857V4.20525C57.409 5.53907 56.8785 6.81783 55.9353 7.76098C54.9921 8.70414 53.7134 9.23466 52.3795 9.23615Z" fill="white"/>
<path d="M55.2581 4.43965H47.0506C46.9796 4.43965 46.9116 4.41144 46.8614 4.36125C46.8112 4.31105 46.783 4.24296 46.783 4.17197C46.783 4.10098 46.8112 4.03289 46.8614 3.9827C46.9116 3.9325 46.9796 3.9043 47.0506 3.9043H55.2581C55.3291 3.9043 55.3972 3.9325 55.4474 3.9827C55.4976 4.03289 55.5258 4.10098 55.5258 4.17197C55.5258 4.24296 55.4976 4.31105 55.4474 4.36125C55.3972 4.41144 55.3291 4.43965 55.2581 4.43965Z" fill="#EDA268"/>
<path d="M48.3345 5.49777H47.0506C46.9796 5.49777 46.9116 5.46957 46.8614 5.41937C46.8112 5.36917 46.783 5.30108 46.783 5.23009C46.783 5.15909 46.8112 5.09101 46.8614 5.04081C46.9116 4.99061 46.9796 4.9624 47.0506 4.9624H48.3345C48.4055 4.9624 48.4736 4.99061 48.5238 5.04081C48.574 5.09101 48.6022 5.15909 48.6022 5.23009C48.6022 5.30108 48.574 5.36917 48.5238 5.41937C48.4736 5.46957 48.4055 5.49777 48.3345 5.49777Z" fill="#EDA268"/>
<path d="M50.6083 6.55539H47.0506C46.9797 6.55525 46.9117 6.52698 46.8616 6.47679C46.8116 6.42661 46.7834 6.3586 46.7834 6.28771C46.7834 6.21681 46.8116 6.14881 46.8616 6.09862C46.9117 6.04844 46.9797 6.02017 47.0506 6.02002H50.6083C50.6793 6.02002 50.7474 6.04822 50.7976 6.09842C50.8478 6.14862 50.876 6.21671 50.876 6.28771C50.876 6.3587 50.8478 6.42679 50.7976 6.47699C50.7474 6.52719 50.6793 6.55539 50.6083 6.55539Z" fill="#EDA268"/>
<path d="M43.567 11.6012C44.9608 11.6012 46.0907 10.4713 46.0907 9.07746C46.0907 7.68363 44.9608 6.55371 43.567 6.55371C42.1731 6.55371 41.0432 7.68363 41.0432 9.07746C41.0432 10.4713 42.1731 11.6012 43.567 11.6012Z" fill="#3F3D56"/>
</g>
<defs>
<clipPath id="clip0_677_11155">
<rect width="94.6581" height="82" fill="white"/>
</clipPath>
</defs>
</svg>
